<svg xmlns="http://www.w3.org/2000/svg" width="65" height="66" viewBox="0 0 65 66" fill="none">
  <path d="M32.4942 0.5C26.0663 0.5 19.7827 2.40609 14.4381 5.97724C9.09352 9.54838 4.92792 14.6242 2.46807 20.5628C0.00822237 26.5014 -0.635386 33.0361 0.618634 39.3404C1.87265 45.6448 4.96798 51.4358 9.51318 55.981C14.0584 60.5262 19.8493 63.6215 26.1537 64.8755C32.4581 66.1295 38.9928 65.4859 44.9314 63.0261C50.87 60.5662 55.9458 56.4006 59.5169 51.056C63.0881 45.7114 64.9942 39.4279 64.9942 33C64.9851 24.3833 61.558 16.122 55.4651 10.0291C49.3721 3.93612 41.1109 0.509099 32.4942 0.5ZM46.7629 27.2688L29.2629 44.7688C29.0307 45.0012 28.755 45.1856 28.4515 45.3114C28.148 45.4372 27.8227 45.502 27.4942 45.502C27.1656 45.502 26.8403 45.4372 26.5368 45.3114C26.2333 45.1856 25.9576 45.0012 25.7254 44.7688L18.2254 37.2688C17.7563 36.7996 17.4928 36.1634 17.4928 35.5C17.4928 34.8366 17.7563 34.2004 18.2254 33.7312C18.6945 33.2621 19.3307 32.9986 19.9942 32.9986C20.6576 32.9986 21.2938 33.2621 21.7629 33.7312L27.4942 39.4656L43.2254 23.7312C43.4577 23.499 43.7334 23.3147 44.0369 23.189C44.3404 23.0633 44.6657 22.9986 44.9942 22.9986C45.3226 22.9986 45.6479 23.0633 45.9514 23.189C46.2549 23.3147 46.5306 23.499 46.7629 23.7312C46.9952 23.9635 47.1794 24.2393 47.3051 24.5428C47.4308 24.8462 47.4955 25.1715 47.4955 25.5C47.4955 25.8285 47.4308 26.1538 47.3051 26.4572C47.1794 26.7607 46.9952 27.0365 46.7629 27.2688Z" fill="url(#paint0_linear_261_507)"/>
  <defs>
    <linearGradient id="paint0_linear_261_507" x1="12.4941" y1="8.66214" x2="50.4941" y2="59.1621" gradientUnits="userSpaceOnUse">
      <stop stop-color="#D4145A"/>
      <stop offset="1" stop-color="#FBB03B"/>
    </linearGradient>
  </defs>
</svg>