<svg xmlns="http://www.w3.org/2000/svg" width="24" height="24" viewBox="0 0 24 24" fill="none">
  <path d="M20.25 3.75H6.75C6.35218 3.75 5.97064 3.90804 5.68934 4.18934C5.40804 4.47064 5.25 4.85218 5.25 5.25V6.75H3.75C3.35218 6.75 2.97064 6.90804 2.68934 7.18934C2.40804 7.47064 2.25 7.85218 2.25 8.25V18.75C2.25 19.1478 2.40804 19.5294 2.68934 19.8107C2.97064 20.092 3.35218 20.25 3.75 20.25H17.25C17.6478 20.25 18.0294 20.092 18.3107 19.8107C18.592 19.5294 18.75 19.1478 18.75 18.75V17.25H20.25C20.6478 17.25 21.0294 17.092 21.3107 16.8107C21.592 16.5294 21.75 16.1478 21.75 15.75V5.25C21.75 4.85218 21.592 4.47064 21.3107 4.18934C21.0294 3.90804 20.6478 3.75 20.25 3.75ZM6.75 5.25H20.25V11.1328L19.3059 10.1897C19.1666 10.0504 19.0013 9.93984 18.8193 9.86444C18.6373 9.78904 18.4422 9.75023 18.2452 9.75023C18.0481 9.75023 17.8531 9.78904 17.6711 9.86444C17.489 9.93984 17.3237 10.0504 17.1844 10.1897L15.3094 12.0647L11.1844 7.93969C10.9031 7.6586 10.5217 7.5007 10.1241 7.5007C9.72641 7.5007 9.34503 7.6586 9.06375 7.93969L6.75 10.2534V5.25ZM17.25 18.75H3.75V8.25H5.25V15.75C5.25 16.1478 5.40804 16.5294 5.68934 16.8107C5.97064 17.092 6.35218 17.25 6.75 17.25H17.25V18.75ZM20.25 15.75H6.75V12.375L10.125 9L14.7806 13.6556C14.9213 13.7962 15.112 13.8751 15.3108 13.8751C15.5096 13.8751 15.7003 13.7962 15.8409 13.6556L18.2466 11.25L20.25 13.2544V15.75ZM15 7.875C15 7.6525 15.066 7.43499 15.1896 7.24998C15.3132 7.06498 15.4889 6.92078 15.6945 6.83564C15.9 6.75049 16.1262 6.72821 16.3445 6.77162C16.5627 6.81502 16.7632 6.92217 16.9205 7.0795C17.0778 7.23684 17.185 7.43729 17.2284 7.65552C17.2718 7.87375 17.2495 8.09995 17.1644 8.30552C17.0792 8.51109 16.935 8.68679 16.75 8.8104C16.565 8.93402 16.3475 9 16.125 9C15.8266 9 15.5405 8.88147 15.3295 8.6705C15.1185 8.45952 15 8.17337 15 7.875Z" fill="#8B8B8B"/>
</svg>