<svg xmlns="http://www.w3.org/2000/svg" width="14" height="14" viewBox="0 0 14 14" fill="none">
  <path d="M7 0C5.61553 0 4.26215 0.410543 3.11101 1.17971C1.95987 1.94888 1.06266 3.04213 0.532846 4.32122C0.00303299 5.6003 -0.13559 7.00776 0.134506 8.36563C0.404603 9.7235 1.07129 10.9708 2.05026 11.9497C3.02922 12.9287 4.2765 13.5954 5.63437 13.8655C6.99224 14.1356 8.3997 13.997 9.67879 13.4672C10.9579 12.9373 12.0511 12.0401 12.8203 10.889C13.5895 9.73785 14 8.38447 14 7C13.998 5.14409 13.2599 3.36475 11.9476 2.05242C10.6353 0.740087 8.85592 0.00195988 7 0ZM10.7692 7.53846H7C6.85719 7.53846 6.72023 7.48173 6.61925 7.38075C6.51827 7.27977 6.46154 7.14281 6.46154 7V3.23077C6.46154 3.08796 6.51827 2.951 6.61925 2.85002C6.72023 2.74904 6.85719 2.69231 7 2.69231C7.14281 2.69231 7.27977 2.74904 7.38075 2.85002C7.48173 2.951 7.53846 3.08796 7.53846 3.23077V6.46154H10.7692C10.912 6.46154 11.049 6.51827 11.15 6.61925C11.251 6.72023 11.3077 6.85719 11.3077 7C11.3077 7.14281 11.251 7.27977 11.15 7.38075C11.049 7.48173 10.912 7.53846 10.7692 7.53846Z" fill="#8B8B8B"/>
</svg>