<svg xmlns="http://www.w3.org/2000/svg" width="30" height="30" viewBox="0 0 30 30" fill="none">
  <path d="M29.2969 7.40523L22.5936 0.703146C22.3708 0.480225 22.1062 0.303391 21.815 0.182744C21.5238 0.0620967 21.2117 0 20.8965 0C20.5813 0 20.2691 0.0620967 19.9779 0.182744C19.6867 0.303391 19.4221 0.480225 19.1993 0.703146L0.703485 19.1999C0.479663 19.4219 0.302211 19.6863 0.181444 19.9775C0.060677 20.2688 -0.00099512 20.5811 1.2142e-05 20.8964V27.6C1.2142e-05 28.2365 0.252859 28.847 0.702929 29.297C1.153 29.7471 1.76342 30 2.39992 30H27.599C27.9172 30 28.2224 29.8736 28.4475 29.6485C28.6725 29.4235 28.7989 29.1182 28.7989 28.8C28.7989 28.4817 28.6725 28.1765 28.4475 27.9514C28.2224 27.7264 27.9172 27.6 27.599 27.6H12.4975L29.2969 10.7998C29.5198 10.5769 29.6966 10.3123 29.8173 10.0211C29.9379 9.72985 30 9.41772 30 9.1025C30 8.78727 29.9379 8.47514 29.8173 8.18392C29.6966 7.8927 29.5198 7.6281 29.2969 7.40523ZM9.10316 27.6H2.39992V20.8964L15.5994 7.69623L22.3027 14.3998L9.10316 27.6ZM23.9991 12.7033L17.2974 5.99971L20.8972 2.39967L27.599 9.10325L23.9991 12.7033Z" fill="white"/>
</svg>