<svg xmlns="http://www.w3.org/2000/svg" width="37" height="32" viewBox="0 0 37 32" fill="none">
  <path d="M37 10.3358C37 22.0052 19.8561 31.4508 19.126 31.8408C18.9336 31.9453 18.7185 32 18.5 32C18.2815 32 18.0664 31.9453 17.874 31.8408C17.1439 31.4508 0 22.0052 0 10.3358C0.00306033 7.5955 1.08301 4.96835 3.00292 3.03069C4.92283 1.09302 7.52591 0.00308862 10.2411 0C13.652 0 16.6384 1.48035 18.5 3.98261C20.3616 1.48035 23.348 0 26.7589 0C29.4741 0.00308862 32.0772 1.09302 33.9971 3.03069C35.917 4.96835 36.9969 7.5955 37 10.3358Z" fill="#D4145A"/>
</svg>