<svg xmlns="http://www.w3.org/2000/svg" width="14" height="14" viewBox="0 0 14 14" fill="none">
  <path d="M7 0C5.61553 0 4.26215 0.410543 3.11101 1.17971C1.95987 1.94888 1.06266 3.04213 0.532846 4.32121C0.00303296 5.6003 -0.13559 7.00776 0.134506 8.36563C0.404603 9.7235 1.07129 10.9708 2.05026 11.9497C3.02922 12.9287 4.2765 13.5954 5.63437 13.8655C6.99224 14.1356 8.3997 13.997 9.67878 13.4672C10.9579 12.9373 12.0511 12.0401 12.8203 10.889C13.5895 9.73784 14 8.38447 14 7C13.9979 5.14414 13.2597 3.3649 11.9474 2.05261C10.6351 0.740322 8.85586 0.00213768 7 0ZM12.2742 4.30769H9.87471C9.57254 3.19907 9.06325 2.15767 8.37375 1.23846C9.20683 1.43859 9.98677 1.81648 10.6601 2.34625C11.3335 2.87601 11.8837 3.54512 12.2742 4.30769ZM12.9231 7C12.9235 7.54624 12.8481 8.0899 12.6989 8.61538H10.1069C10.2721 7.54479 10.2721 6.45521 10.1069 5.38461H12.6989C12.8481 5.9101 12.9235 6.45375 12.9231 7ZM7 1.27885C7.8063 2.14208 8.40484 3.17802 8.75 4.30769H5.25C5.59481 3.17787 6.1934 2.14185 7 1.27885ZM5.25 9.69231H8.75C8.40519 10.8221 7.8066 11.8581 7 12.7212C6.19371 11.8579 5.59516 10.822 5.25 9.69231ZM4.9875 8.61538C4.80264 7.54639 4.80264 6.4536 4.9875 5.38461H9.01789C9.20275 6.4536 9.20275 7.54639 9.01789 8.61538H4.9875ZM8.37644 12.7615C9.06594 11.8423 9.57523 10.8009 9.8774 9.69231H12.2776C11.8867 10.4552 11.3355 11.1245 10.6616 11.6542C9.98779 12.184 9.20731 12.5618 8.37375 12.7615H8.37644Z" fill="#8B8B8B"/>
</svg>