<svg xmlns="http://www.w3.org/2000/svg" width="14" height="14" viewBox="0 0 14 14" fill="none">
  <path d="M10.2308 0H3.76923C2.7699 0.001069 1.8118 0.398527 1.10516 1.10516C0.398527 1.8118 0.001069 2.7699 0 3.76923V10.2308C0.001069 11.2301 0.398527 12.1882 1.10516 12.8948C1.8118 13.6015 2.7699 13.9989 3.76923 14H10.2308C11.2301 13.9989 12.1882 13.6015 12.8948 12.8948C13.6015 12.1882 13.9989 11.2301 14 10.2308V3.76923C13.9989 2.7699 13.6015 1.8118 12.8948 1.10516C12.1882 0.398527 11.2301 0.001069 10.2308 0ZM7 10.2308C6.36101 10.2308 5.73638 10.0413 5.20508 9.68629C4.67378 9.33129 4.25969 8.82671 4.01516 8.23636C3.77063 7.64602 3.70665 6.99642 3.83131 6.36971C3.95597 5.743 4.26367 5.16733 4.7155 4.7155C5.16733 4.26367 5.743 3.95597 6.36971 3.83131C6.99642 3.70665 7.64602 3.77063 8.23636 4.01516C8.82671 4.25969 9.33129 4.67378 9.68629 5.20508C10.0413 5.73638 10.2308 6.36101 10.2308 7C10.2299 7.85658 9.88921 8.67782 9.28352 9.28352C8.67782 9.88921 7.85658 10.2299 7 10.2308ZM11.0385 3.76923C10.8787 3.76923 10.7226 3.72186 10.5897 3.63311C10.4569 3.54436 10.3534 3.41822 10.2923 3.27063C10.2311 3.12304 10.2151 2.96064 10.2463 2.80397C10.2775 2.64729 10.3544 2.50337 10.4673 2.39041C10.5803 2.27746 10.7242 2.20053 10.8809 2.16937C11.0376 2.1382 11.2 2.1542 11.3476 2.21533C11.4951 2.27646 11.6213 2.37998 11.71 2.51281C11.7988 2.64563 11.8462 2.80179 11.8462 2.96154C11.8462 3.17575 11.7611 3.38119 11.6096 3.53266C11.4581 3.68414 11.2527 3.76923 11.0385 3.76923ZM9.15385 7C9.15385 7.42599 9.02753 7.84241 8.79086 8.19661C8.55419 8.55081 8.2178 8.82688 7.82424 8.98989C7.43068 9.15292 6.99761 9.19557 6.57981 9.11246C6.162 9.02936 5.77822 8.82422 5.477 8.523C5.17578 8.22178 4.97065 7.838 4.88754 7.42019C4.80443 7.00239 4.84709 6.56932 5.01011 6.17576C5.17313 5.7822 5.44919 5.44581 5.80339 5.20914C6.15759 4.97248 6.57401 4.84615 7 4.84615C7.57124 4.84615 8.11907 5.07308 8.523 5.477C8.92692 5.88093 9.15385 6.42876 9.15385 7Z" fill="#8B8B8B"/>
</svg>