<svg xmlns="http://www.w3.org/2000/svg" width="12" height="16" viewBox="0 0 12 16" fill="none">
  <path d="M6 0C4.40926 0.00189054 2.88418 0.664747 1.75935 1.84315C0.634525 3.02155 0.00180459 4.61927 0 6.28578C0 11.6644 5.45455 15.7266 5.68705 15.8966C5.77876 15.9639 5.88802 16 6 16C6.11198 16 6.22124 15.9639 6.31295 15.8966C6.54545 15.7266 12 11.6644 12 6.28578C11.9982 4.61927 11.3655 3.02155 10.2406 1.84315C9.11582 0.664747 7.59075 0.00189054 6 0ZM6 4.00004C6.43152 4.00004 6.85336 4.1341 7.21215 4.38526C7.57095 4.63642 7.8506 4.9934 8.01574 5.41106C8.18087 5.82873 8.22408 6.28831 8.1399 6.7317C8.05571 7.17509 7.84791 7.58237 7.54278 7.90204C7.23765 8.2217 6.84888 8.4394 6.42565 8.5276C6.00242 8.61579 5.56373 8.57053 5.16505 8.39752C4.76638 8.22452 4.42563 7.93155 4.18588 7.55566C3.94614 7.17978 3.81818 6.73785 3.81818 6.28578C3.81818 5.67956 4.04805 5.09818 4.45722 4.66952C4.86639 4.24086 5.42135 4.00004 6 4.00004Z" fill="#8B8B8B"/>
</svg>