<svg xmlns="http://www.w3.org/2000/svg" width="37" height="32" viewBox="0 0 37 32" fill="none">
  <path d="M26.7589 0C23.348 0 20.3616 1.48035 18.5 3.98261C16.6384 1.48035 13.652 0 10.2411 0C7.52591 0.00308862 4.92283 1.09302 3.00292 3.03069C1.08301 4.96835 0.00306033 7.5955 0 10.3358C0 22.0052 17.1439 31.4508 17.874 31.8408C18.0664 31.9453 18.2815 32 18.5 32C18.7185 32 18.9336 31.9453 19.126 31.8408C19.8561 31.4508 37 22.0052 37 10.3358C36.9969 7.5955 35.917 4.96835 33.9971 3.03069C32.0772 1.09302 29.4741 0.00308862 26.7589 0ZM18.5 29.1402C15.4838 27.3665 2.64286 19.2862 2.64286 10.3358C2.64548 8.30278 3.44685 6.35381 4.87122 4.91626C6.29559 3.47872 8.2267 2.66994 10.2411 2.6673C13.4538 2.6673 16.1512 4.39437 17.2777 7.16836C17.3772 7.41296 17.5466 7.62218 17.7642 7.76941C17.9819 7.91665 18.238 7.99526 18.5 7.99526C18.762 7.99526 19.0181 7.91665 19.2358 7.76941C19.4534 7.62218 19.6228 7.41296 19.7223 7.16836C20.8488 4.38937 23.5462 2.6673 26.7589 2.6673C28.7733 2.66994 30.7044 3.47872 32.1288 4.91626C33.5532 6.35381 34.3545 8.30278 34.3571 10.3358C34.3571 19.2729 21.5129 27.3648 18.5 29.1402Z" fill="#CACACA"/>
</svg>