<svg xmlns="http://www.w3.org/2000/svg" width="16" height="16" viewBox="0 0 16 16" fill="none">
  <path d="M14.7078 6.5L11.3659 9.85313C11.6509 10.645 11.7691 11.9713 10.5416 13.6031C10.4557 13.7179 10.3461 13.8127 10.2202 13.8812C10.0943 13.9497 9.95515 13.9902 9.81218 14C9.78843 14 9.7653 14 9.74155 14C9.61015 14 9.48003 13.9741 9.35863 13.9239C9.23724 13.8736 9.12694 13.7998 9.03405 13.7069L6.0178 10.6875L3.35343 13.3538C3.25961 13.4476 3.13236 13.5003 2.99968 13.5003C2.867 13.5003 2.73975 13.4476 2.64593 13.3538C2.55211 13.2599 2.4994 13.1327 2.4994 13C2.4994 12.8673 2.55211 12.7401 2.64593 12.6463L5.31218 9.98188L2.29343 6.96313C2.1942 6.86378 2.11701 6.74464 2.06688 6.61348C2.01675 6.48233 1.9948 6.34208 2.00247 6.20187C2.01013 6.06167 2.04724 5.92465 2.11137 5.79974C2.1755 5.67482 2.26521 5.56482 2.37468 5.47688C3.96343 4.195 5.48405 4.44688 6.14968 4.65563L9.49968 1.29375C9.59254 1.20087 9.70279 1.12719 9.82413 1.07692C9.94547 1.02665 10.0755 1.00078 10.2069 1.00078C10.3382 1.00078 10.4683 1.02665 10.5896 1.07692C10.7109 1.12719 10.8212 1.20087 10.9141 1.29375L14.7072 5.08625C14.8947 5.27369 15 5.52789 15.0002 5.793C15.0003 6.0581 14.8951 6.3124 14.7078 6.5Z" fill="#D4145A"/>
</svg>