<svg width="100" height="50" viewBox="0 0 100 50" fill="none" xmlns="http://www.w3.org/2000/svg">
<g id="&#237;&#140;&#157;&#237;&#149;&#128;_gradiant" clip-path="url(#clip0_51_29)">
<g id="&#235;&#160;&#136;&#236;&#157;&#180;&#236;&#150;&#180; 1">
<g id="Clip path group">
<mask id="mask0_51_29" style="mask-type:luminance" maskUnits="userSpaceOnUse" x="0" y="0" width="100" height="50">
<g id="clippath">
<path id="Vector" d="M1.57233 18.4636L4.40252 18.239L5.97484 9.56873H2.02156L3.59389 2.02156H30.9973L29.425 9.56873H25.6963L24.124 16.8913L28.4367 16.442L27.0889 23.9892L0 26.46L1.57233 18.4636ZM14.106 32.0305L31.6712 30.6828L32.345 27.4034L41.5544 26.7296L38.6366 46.2084L29.4564 46.9272L29.6204 44.7102L10.5368 46.4173L10.0562 49.2341L1.75427 50L5.57278 28.7511L15.0067 28.3019L14.1083 32.0305H14.106ZM13.2075 9.56873L11.6352 17.7898L16.8913 17.3405L18.4636 9.56873H13.2075ZM47.619 18.4636L50.4492 18.239L52.0216 9.56873H48.0683L49.6406 2.02156H77.044L75.4717 9.56873H71.743L70.1707 16.8913L74.4834 16.442L73.1357 23.9892L46.0467 26.46L47.619 18.4636ZM59.2543 9.56873L57.6819 17.7898L62.938 17.3405L64.5103 9.56873H59.2543ZM12.9829 36.7026L12.3091 40.1617L30.3234 38.814L30.7727 35.3549L12.9829 36.7026ZM38.4097 24.4834H29.8742L33.2435 0H42.0036L40.8805 7.90656H45.3729L44.2498 16.442H39.5328L38.4097 24.4834ZM52.1114 28.9757H61.5454L59.2992 37.2866L87.6011 34.8158L85.1303 43.8005L47.619 47.1698L52.1114 28.9757ZM81.1568 0H88.7668L83.8252 30.9524L74.3913 32.3001L81.1568 0ZM90.0741 32.655L96.3971 28.8702L92.8594 23.7736L88.3199 31.1523L90.0764 32.655H90.0741ZM90.4852 37.1923L99.5687 36.2736L97.8189 31.186L90.8221 34.5036L90.4852 37.19V37.1923Z" fill="white"/>
</g>
</mask>
<g mask="url(#mask0_51_29)">
<g id="Group">
<path id="Vector_2" d="M104.526 -2.0665H-5.55469V52.0148H104.526V-2.0665Z" fill="url(#paint0_linear_51_29)"/>
</g>
</g>
</g>
</g>
</g>
<defs>
<linearGradient id="paint0_linear_51_29" x1="-5.55469" y1="24.973" x2="104.526" y2="24.973" gradientUnits="userSpaceOnUse">
<stop stop-color="#D4145A"/>
<stop offset="1" stop-color="#FBB03B"/>
</linearGradient>
<clipPath id="clip0_51_29">
<rect width="99.5687" height="50" fill="white"/>
</clipPath>
</defs>
</svg>
