<svg xmlns="http://www.w3.org/2000/svg" width="16" height="16" viewBox="0 0 16 16" fill="none">
  <path d="M7.88214 12.825L4.18214 15.65C3.99881 15.8 3.79881 15.8707 3.58214 15.862C3.36548 15.854 3.17381 15.7917 3.00714 15.675C2.84048 15.5583 2.71148 15.4 2.62014 15.2C2.52814 15 2.52381 14.7833 2.60714 14.55L4.03214 9.925L0.407143 7.35C0.207143 7.21667 0.0821428 7.04167 0.0321428 6.825C-0.0178572 6.60833 -0.00952375 6.40833 0.0571429 6.225C0.12381 6.04167 0.240476 5.879 0.407143 5.737C0.57381 5.59567 0.773809 5.525 1.00714 5.525H5.48214L6.93214 0.725C7.01548 0.491667 7.14481 0.312334 7.32014 0.187C7.49481 0.0623336 7.68214 0 7.88214 0C8.08214 0 8.26948 0.0623336 8.44414 0.187C8.61948 0.312334 8.74881 0.491667 8.83214 0.725L10.2821 5.525H14.7571C14.9905 5.525 15.1905 5.59567 15.3571 5.737C15.5238 5.879 15.6405 6.04167 15.7071 6.225C15.7738 6.40833 15.7821 6.60833 15.7321 6.825C15.6821 7.04167 15.5571 7.21667 15.3571 7.35L11.7321 9.925L13.1571 14.55C13.2405 14.7833 13.2365 15 13.1451 15.2C13.0531 15.4 12.9238 15.5583 12.7571 15.675C12.5905 15.7917 12.3988 15.854 12.1821 15.862C11.9655 15.8707 11.7655 15.8 11.5821 15.65L7.88214 12.825Z" fill="#FBB03B"/>
</svg>