<svg xmlns="http://www.w3.org/2000/svg" width="16" height="16" viewBox="0 0 16 16" fill="none">
  <path d="M14.3539 13.6463L11.2245 10.5175C12.1315 9.42857 12.5838 8.03188 12.4873 6.61796C12.3908 5.20405 11.7528 3.88179 10.7062 2.92624C9.65963 1.97069 8.28492 1.45541 6.86808 1.48761C5.45125 1.51981 4.10137 2.09701 3.09926 3.09912C2.09714 4.10123 1.51995 5.45111 1.48775 6.86795C1.45555 8.28478 1.97082 9.65949 2.92638 10.7061C3.88193 11.7527 5.20419 12.3906 6.6181 12.4872C8.03201 12.5837 9.42871 12.1314 10.5176 11.2244L13.6464 14.3538C13.6928 14.4002 13.748 14.4371 13.8087 14.4622C13.8694 14.4873 13.9344 14.5003 14.0001 14.5003C14.0658 14.5003 14.1309 14.4873 14.1916 14.4622C14.2523 14.4371 14.3074 14.4002 14.3539 14.3538C14.4003 14.3073 14.4372 14.2522 14.4623 14.1915C14.4875 14.1308 14.5004 14.0657 14.5004 14C14.5004 13.9343 14.4875 13.8693 14.4623 13.8086C14.4372 13.7479 14.4003 13.6927 14.3539 13.6463ZM2.50014 7.00001C2.50014 6.10999 2.76406 5.23996 3.25853 4.49994C3.753 3.75992 4.4558 3.18314 5.27807 2.84255C6.10034 2.50195 7.00514 2.41284 7.87805 2.58647C8.75096 2.76011 9.55279 3.18869 10.1821 3.81802C10.8115 4.44736 11.24 5.24918 11.4137 6.1221C11.5873 6.99501 11.4982 7.89981 11.1576 8.72208C10.817 9.54435 10.2402 10.2472 9.50021 10.7416C8.76019 11.2361 7.89016 11.5 7.00014 11.5C5.80708 11.4987 4.66325 11.0242 3.81962 10.1805C2.976 9.3369 2.50147 8.19307 2.50014 7.00001Z" fill="#8B8B8B"/>
</svg>