<svg xmlns="http://www.w3.org/2000/svg" width="15" height="15" viewBox="0 0 15 15" fill="none">
  <path d="M14.4624 1.77127C14.4624 1.77127 14.4624 1.77752 14.4624 1.78065L10.8249 13.7769C10.7699 13.9717 10.6566 14.1451 10.5002 14.2737C10.3438 14.4023 10.1518 14.4799 9.94995 14.4963C9.9212 14.4988 9.89245 14.5 9.8637 14.5C9.67457 14.5006 9.48922 14.4471 9.32953 14.3457C9.16984 14.2444 9.04246 14.0995 8.96245 13.9281L6.68745 9.2594C6.66468 9.21261 6.65709 9.15988 6.66571 9.10857C6.67434 9.05726 6.69876 9.00992 6.73557 8.97315L10.3556 5.35315C10.4454 5.25861 10.4947 5.13274 10.493 5.00236C10.4914 4.87198 10.4388 4.74741 10.3466 4.65521C10.2544 4.56301 10.1299 4.51047 9.99949 4.5088C9.8691 4.50713 9.74323 4.55646 9.6487 4.64627L6.02682 8.26627C5.99005 8.30308 5.94271 8.32751 5.8914 8.33613C5.84009 8.34476 5.78736 8.33716 5.74057 8.3144L1.06745 6.04002C0.884711 5.95235 0.732927 5.81122 0.632209 5.63534C0.531492 5.45946 0.486597 5.25712 0.503473 5.05514C0.52035 4.85317 0.598201 4.66109 0.726711 4.50436C0.85522 4.34763 1.02832 4.23365 1.22307 4.17752L13.2193 0.54002H13.2287C13.3995 0.492033 13.58 0.490351 13.7517 0.535146C13.9233 0.57994 14.08 0.669599 14.2056 0.794923C14.3311 0.920247 14.4211 1.07672 14.4663 1.2483C14.5114 1.41987 14.5101 1.60037 14.4624 1.77127Z" fill="white"/>
</svg>