<svg width="23" height="28" viewBox="0 0 23 28" fill="none" xmlns="http://www.w3.org/2000/svg">
<path d="M20.3098 26.35C21.5198 26.35 21.5198 24.47 20.3098 24.47C19.0998 24.47 19.0998 26.35 20.3098 26.35Z" fill="#D4145A"/>
<path d="M2.8498 13.8C1.8098 17.04 1.7098 20.57 1.3798 23.93C1.2498 25.24 2.5998 26.38 3.8198 26.37C6.5298 26.36 9.2398 26.34 11.9598 26.33C13.3398 26.33 14.7198 26.32 16.0998 26.31C17.4798 26.3 18.9798 26.5 20.2098 25.85C21.8698 24.96 21.7998 23.14 21.7598 21.52C21.7298 20.15 21.6798 18.77 21.6098 17.4C21.5398 16.03 21.4298 14.53 20.2798 13.57C19.1298 12.61 17.4098 12.46 15.8998 12.4C14.5998 12.35 13.2998 12.43 12.0098 12.4C10.8298 12.37 10.1698 12.18 8.9898 11.98C7.5498 11.73 6.0198 11.69 4.8098 12.63C3.5998 13.57 3.1498 14.88 3.0798 16.37C2.9398 19.19 3.3398 22.69 6.4398 23.72C7.6298 24.12 9.0298 24.18 10.2798 24.19C11.7698 24.21 13.4098 24.17 14.5798 23.12C14.6598 23.04 14.7298 22.96 14.8098 22.88C14.8998 22.77 14.9798 22.66 15.0698 22.54C15.2798 22.27 15.3198 22.21 15.2098 22.37C15.2798 22.42 14.1498 22.87 14.1498 22.86C14.1698 22.89 14.5798 22.86 14.6498 22.86C15.5998 22.83 16.4498 22.63 17.1798 21.99C18.6698 20.67 18.3998 18.21 16.8798 17.03C15.5798 16.03 13.8698 15.94 12.2898 15.78C10.7898 15.63 9.2898 15.61 7.7898 15.69C6.5198 15.76 5.2898 16.76 5.3498 18.13C5.4098 19.39 6.4298 20.65 7.7898 20.57C9.2398 20.49 10.6998 20.5 12.1498 20.64C12.8298 20.71 13.0998 20.73 13.7398 20.86C13.7398 20.86 14.1498 20.99 14.1798 20.97C13.9998 21.06 13.5698 20.34 13.6798 20.49L13.3598 20.07C15.3098 18.6 15.8098 17.9 14.8398 17.96C14.6898 17.94 14.4898 17.96 14.3398 17.96C13.3998 18 12.5998 18.23 11.8698 18.84C11.7498 18.94 11.6598 19.02 11.5498 19.15L11.3598 19.4C11.1498 19.67 11.0998 19.73 11.2198 19.58C11.1598 19.51 12.1698 19.13 11.7098 19.26C11.3598 19.36 12.3598 19.24 11.5398 19.27C10.8798 19.3 10.2198 19.32 9.5498 19.28C9.2198 19.26 8.8898 19.24 8.5598 19.2C8.2698 19.16 8.4398 19.18 8.5098 19.2C8.3498 19.17 8.1098 19.08 7.9398 19.08C7.6898 19.08 7.9398 19.1 8.0598 19.18C8.1398 19.24 8.1698 19.32 8.2298 19.38C8.0198 19.19 8.0998 19.15 8.1898 19.36C8.1198 19.19 8.0798 19 8.0298 18.83C8.0298 18.86 7.9398 18.41 7.9798 18.61C8.0198 18.84 7.9498 18.28 7.9498 18.24C7.9298 17.87 7.9298 17.49 7.9298 17.12C7.9298 16.83 7.9298 16.54 7.9498 16.26C7.9698 15.89 8.0398 16.2 7.9498 16.25C7.9098 16.27 8.1998 15.94 7.9798 16.14C7.7798 16.32 7.7498 16.53 7.4698 16.67C7.1598 16.82 7.1998 16.67 7.4398 16.69C7.4998 16.69 8.0898 16.75 7.7798 16.7C7.4998 16.66 7.8798 16.72 7.9098 16.73C8.0598 16.76 8.2098 16.79 8.3598 16.82C8.6398 16.88 8.9298 16.95 9.2198 17C10.0498 17.14 10.8798 17.24 11.7198 17.27C13.1598 17.33 14.5998 17.22 16.0398 17.29C16.2298 17.29 16.4198 17.32 16.6098 17.33C16.9198 17.35 16.7698 17.33 16.9598 17.36C17.0698 17.38 17.1998 17.42 17.3098 17.42C17.6098 17.52 17.5898 17.48 17.2498 17.31C17.0398 17.23 16.8898 17.09 16.8198 16.87C16.4498 16.24 16.6598 16.73 16.7098 16.8C16.6798 16.54 16.6698 16.5 16.6798 16.68C16.6798 16.77 16.6898 16.85 16.6898 16.94C16.7098 17.4 16.7298 17.86 16.7498 18.31C16.7798 19.12 16.8098 19.94 16.8398 20.75C16.8498 21.21 16.8698 21.67 16.8798 22.12C16.8798 22.27 16.8798 22.43 16.8798 22.58C16.9298 23.28 17.0498 22.41 16.8598 22.86L17.4898 21.78C17.7598 21.54 18.0698 21.41 18.4098 21.4H18.2198C17.8698 21.36 17.4898 21.4 17.1498 21.4H15.3098C14.0298 21.42 12.7498 21.42 11.4698 21.43C8.9098 21.44 6.3498 21.45 3.7898 21.47L6.2298 23.91C6.5398 20.79 6.5898 17.99 7.5198 15.08C7.9098 13.86 7.0598 12.36 5.8198 12.08C4.4798 11.78 3.2398 12.48 2.8198 13.78L2.8498 13.8Z" fill="#D4145A"/>
<path d="M2.76012 17.51H20.3101C22.2001 17.51 22.2101 14.57 20.3101 14.57H2.76012C0.87012 14.57 0.86012 17.51 2.76012 17.51Z" fill="#FBB03B"/>
<path d="M19.1498 12.31C19.1498 12.31 19.0998 12.33 19.0698 12.34L19.3198 12.31C19.3198 12.31 19.2398 12.31 19.1898 12.31L19.4398 12.34C19.2398 12.3 19.0698 12.2 18.8698 12.16C18.5898 12.1 18.3098 12.08 18.0298 12.05C17.5698 12 17.1098 11.94 16.6598 11.89C16.4398 11.86 16.1498 12.01 15.9998 12.17C15.8398 12.33 15.7098 12.6 15.7198 12.83C15.7298 13.06 15.8098 13.33 15.9998 13.49C16.1998 13.67 16.3998 13.74 16.6598 13.77C17.2498 13.84 17.8498 13.9 18.4398 13.98L18.1898 13.95C18.6798 14.02 19.1498 14.35 19.6598 14.14C19.8998 14.04 20.0898 13.94 20.2198 13.71C20.3398 13.51 20.3898 13.21 20.3098 12.99C20.2298 12.77 20.0998 12.54 19.8798 12.43C19.6598 12.32 19.3798 12.24 19.1598 12.34L19.1498 12.31Z" fill="#D4145A"/>
<path d="M7.86974 11.27C7.98974 11.23 8.30974 11.09 8.42974 11.13L8.17974 11.17C8.27974 11.17 8.36974 11.15 8.46974 11.15C8.81974 11.13 9.16974 11.14 9.50974 11.14C10.1997 11.14 10.8897 11.14 11.5797 11.14C12.2697 11.14 12.9597 11.14 13.6497 11.14C13.9497 11.14 14.2597 11.17 14.5597 11.16C14.2297 11.11 14.1397 11.1 14.2897 11.13C14.3397 11.14 14.3897 11.16 14.4397 11.17C14.2297 11.12 14.0497 11.01 13.8997 10.85C13.7097 10.56 13.6597 10.5 13.7597 10.68C14.2497 11.61 15.6197 11.97 16.4997 11.4C17.4397 10.79 17.7397 9.65002 17.2197 8.66002C16.2297 6.79002 13.8197 7.12002 12.0697 7.13002C11.2197 7.13002 10.3797 7.13002 9.52974 7.13002C8.61974 7.13002 7.68974 7.13002 6.81974 7.41002C5.81974 7.73002 5.07974 8.82002 5.41974 9.87002C5.73974 10.87 6.80974 11.61 7.87974 11.27H7.86974Z" fill="#FBB03B"/>
<path d="M18.3799 10.95V9.64001C18.3799 7.57001 16.6999 5.89001 14.6299 5.89001H12.3799V2.39001H16.6299C17.3199 2.39001 17.8799 2.95001 17.8799 3.64001C17.8799 4.05001 18.2199 4.39001 18.6299 4.39001C19.0399 4.39001 19.3799 4.05001 19.3799 3.64001C19.3799 2.12001 18.1499 0.890015 16.6299 0.890015H8.62988C8.21988 0.890015 7.87988 1.23001 7.87988 1.64001C7.87988 2.05001 8.21988 2.39001 8.62988 2.39001H10.8799V5.89001H8.62988C6.55988 5.89001 4.87988 7.57001 4.87988 9.64001V10.95C2.57988 11.32 0.879883 13.31 0.879883 15.64V25.64C0.879883 26.61 1.65988 27.39 2.62988 27.39H20.6299C21.5999 27.39 22.3799 26.61 22.3799 25.64V15.64C22.3799 13.31 20.6799 11.32 18.3799 10.95ZM8.62988 7.39002H14.6299C15.8699 7.39002 16.8799 8.40001 16.8799 9.64001V10.89H6.37988V9.64001C6.37988 8.40001 7.38988 7.39002 8.62988 7.39002ZM20.8799 25.64C20.8799 25.78 20.7699 25.89 20.6299 25.89H2.62988C2.48988 25.89 2.37988 25.78 2.37988 25.64V15.64C2.37988 13.85 3.83988 12.39 5.62988 12.39H17.6299C19.4199 12.39 20.8799 13.85 20.8799 15.64V25.64Z" fill="black"/>
</svg>
