<svg width="28" height="23" viewBox="0 0 28 23" fill="none" xmlns="http://www.w3.org/2000/svg">
<path d="M7.31998 3.82998C6.63998 2.91998 5.92998 2.13998 4.76998 1.89998C3.37998 1.60998 2.04998 2.37998 1.53998 3.67998C1.11998 4.73998 1.09998 6.01998 0.949977 7.13998C0.769977 8.40998 0.529977 9.68998 0.629977 10.97C0.719977 12.14 0.899983 13.27 0.939983 14.45C0.979983 15.71 1.17998 16.89 1.77998 18.02C2.98998 20.28 5.22998 21.23 7.62998 21.67C10.03 22.11 12.7 22.39 15.26 22.41C17.43 22.43 19.83 22.43 21.9 21.67C23.97 20.91 25.71 19.38 26.22 17.09C26.73 14.8 26.56 12.05 26.61 9.60998C26.64 8.15998 26.66 6.69998 26.54 5.24998C26.41 3.62998 26.18 1.79998 24.16 1.68998C20.69 1.49998 20.76 5.70998 20.86 8.11998L23.39 6.18998C22.89 6.05998 22.58 5.68998 22.64 6.26998C22.53 5.23998 21.81 4.19998 20.64 4.26998C18.63 4.38998 16.62 4.42998 14.61 4.37998C12.6 4.32998 10.58 3.96998 8.59998 4.05998C4.98998 4.20998 1.71998 6.98998 0.789981 10.44C0.259981 12.41 2.68998 13.74 4.12998 12.39C4.88998 11.68 5.46998 10.77 6.25998 10.09C7.08998 9.37998 8.19998 9.61998 9.23998 9.63998C11.88 9.68998 15.1 10.09 16.15 7.02998L13.69 8.42998C15.19 8.95998 16.76 9.16998 18.33 9.32998C19.82 9.48998 21.23 9.54998 22.67 9.07998C23.84 8.69998 25.37 8.14998 26.23 7.20998C26.78 6.60998 27.11 5.79998 27.08 4.97998C27.07 4.54998 26.93 4.06998 26.71 3.69998L26.4 3.29998C26.19 2.99998 26.18 3.02998 26.38 3.38998V4.44998L26.43 4.25998L25.92 5.13998L26.04 5.00998L24.63 5.59998H24.8C27.37 5.48998 27.38 1.48998 24.8 1.58998C23.69 1.62998 22.79 2.26998 22.53 3.38998C22.25 4.56998 22.9 5.27998 23.58 6.12998L23.07 5.24998C23.55 4.47998 23.56 4.25998 23.11 4.58998C22.97 4.65998 22.82 4.72998 22.68 4.79998C22.39 4.93998 22.1 5.05998 21.79 5.16998C21.05 5.42998 20.42 5.50998 19.65 5.45998C17.99 5.34998 16.33 5.13998 14.76 4.57998C13.7 4.19998 12.63 5.01998 12.3 5.97998C12.3 5.97998 12.51 5.67998 12.47 5.68998C12.15 5.70998 11.83 5.69998 11.5 5.68998C10.89 5.68998 10.27 5.66998 9.65998 5.65998C8.41998 5.63998 7.06998 5.48998 5.85998 5.82998C3.80998 6.40998 2.77998 8.19998 1.31998 9.57998L4.65998 11.53C4.97998 10.34 5.74998 9.36998 6.80998 8.72998C8.02998 7.97998 9.15998 8.06998 10.54 8.18998C13.91 8.46998 17.29 8.49998 20.66 8.29998L18.66 6.29998C18.88 8.46998 20.33 9.53998 22.35 10.08C23.56 10.4 24.94 9.46998 24.88 8.14998C24.85 7.53998 24.84 6.92998 24.86 6.30998C24.86 6.05998 24.94 5.73998 24.9 5.49998C24.9 5.40998 24.9 5.31998 24.92 5.23998C24.98 4.87998 24.74 5.04998 24.18 5.71998L23.17 5.44998L23.39 5.56998L22.47 4.36998C22.75 6.37998 22.67 8.44998 22.61 10.47C22.56 12.28 22.74 14.28 22.38 16.06C21.79 19 16.8 18.48 14.66 18.43C12.67 18.38 10.68 18.2 8.72998 17.84C7.26998 17.57 5.72998 17.29 5.14998 15.74C4.85998 14.98 4.99998 14.11 4.94998 13.32C4.88998 12.41 4.67998 11.52 4.64998 10.61C4.61998 9.69998 4.75998 8.87998 4.87998 8.02998C4.94998 7.48998 5.02998 6.94998 5.09998 6.41998C5.13998 6.14998 5.16998 5.87998 5.20998 5.60998C5.32998 5.19998 5.25998 5.19998 5.00998 5.60998L3.99998 5.87998C3.88998 5.88998 3.74998 5.66998 3.90998 5.87998C4.54998 6.73998 5.63998 7.18998 6.64998 6.59998C7.49998 6.09998 8.01998 4.72998 7.36998 3.85998L7.31998 3.82998Z" fill="#D4145A"/>
<path d="M7.85008 9.88999C7.13008 10.41 6.42008 10.59 5.96008 11.46C5.69008 11.96 5.60008 12.51 5.58008 13.07C5.58008 13.19 5.58008 13.32 5.58008 13.44C5.57008 13.68 5.58008 13.69 5.61008 13.45C5.70008 13.28 5.71008 13.25 5.64008 13.38C5.44008 13.49 5.42008 13.87 5.37008 14.09C5.25008 14.63 5.30008 15.14 5.57008 15.63C5.80008 16.04 6.17008 16.35 6.53008 16.64C7.46008 17.38 8.42008 17.71 9.60008 17.79C11.4101 17.92 13.2401 17.92 15.0501 17.93C15.9301 17.93 16.8101 17.92 17.6901 17.88C18.6901 17.84 19.7001 17.81 20.6101 17.38C22.4101 16.53 22.7901 14.43 22.5001 12.64C22.3701 11.84 21.9701 11.07 21.3801 10.51C20.5201 9.69999 19.4001 9.50999 18.2601 9.51999C16.4101 9.51999 14.5601 9.55999 12.7101 9.58999C10.8601 9.61999 8.60008 9.43999 7.57008 11.35C6.83008 12.72 7.36008 14.58 8.93008 15.05C9.90008 15.35 11.0501 15.36 12.0601 15.44C14.1001 15.61 16.1401 15.65 18.1901 15.57C19.2301 15.53 20.2401 14.68 20.1901 13.57C20.1401 12.52 19.3101 11.53 18.1901 11.57C16.7401 11.63 15.2901 11.62 13.8501 11.56C13.1701 11.53 12.4901 11.48 11.8101 11.42C11.4301 11.39 11.0501 11.35 10.6701 11.31C10.5001 11.29 10.3301 11.25 10.1601 11.25C9.87008 11.25 10.2601 11.25 10.3401 11.31L11.0601 12.03L10.9701 11.87L11.2401 12.88C11.2101 12.42 11.1001 12.62 10.9001 13.5C10.8401 13.56 10.7801 13.6 10.7101 13.62C10.5801 13.67 10.6301 13.66 10.8401 13.6C10.6401 13.63 10.6701 13.64 10.9201 13.62C11.4301 13.64 11.9401 13.61 12.4501 13.6C13.6001 13.59 14.7401 13.57 15.8901 13.56C16.4601 13.56 17.0401 13.55 17.6101 13.54C17.9001 13.54 18.2001 13.53 18.4901 13.54H18.7101C18.9701 13.55 19.0101 13.56 18.8301 13.56C18.7801 13.47 18.5901 13.37 18.5101 13.26C18.6201 13.46 18.6201 13.45 18.5301 13.23C18.5601 13.31 18.5801 13.39 18.6001 13.48C18.6301 13.63 18.6301 13.59 18.6001 13.38C18.6001 13.5 18.6101 13.61 18.6101 13.73C18.6101 13.84 18.5301 14.33 18.6101 13.9C18.6001 13.99 18.5801 14.08 18.5501 14.17C18.5101 14.31 18.5201 14.29 18.5801 14.12C18.6901 14 18.7701 13.92 18.8901 13.82C18.6501 13.87 18.6401 13.88 18.8601 13.85C18.7601 13.86 18.6701 13.87 18.5701 13.87C18.2801 13.89 17.9801 13.9 17.6801 13.91C16.5401 13.95 15.3901 13.96 14.2501 13.95C13.1101 13.94 11.9601 13.9 10.8201 13.87C10.3501 13.85 9.84008 13.89 9.37008 13.81C9.70008 13.87 9.08008 13.7 9.33008 13.79C9.29008 13.78 8.89007 13.48 9.02007 13.66L9.22008 15.2C9.20008 15.35 9.12008 15.43 9.20008 15.2C9.31008 14.91 9.41008 14.74 9.46008 14.46C9.54008 14.07 9.55008 13.68 9.55008 13.29C9.55008 13.26 9.55008 12.92 9.55008 12.92C9.55008 12.92 9.29008 13.89 9.06008 13.79C9.17008 13.84 9.73008 13.45 9.83008 13.37C10.7101 12.74 11.1301 11.63 10.5501 10.63C10.0401 9.75999 8.70008 9.27999 7.81008 9.90999L7.85008 9.88999Z" fill="#FBB03B"/>
<path d="M19.0399 8.43999H9.03986C6.41986 8.43999 4.28986 10.57 4.28986 13.19V14.19C4.28986 16.81 6.41986 18.94 9.03986 18.94H19.0399C21.6599 18.94 23.7899 16.81 23.7899 14.19V13.19C23.7899 10.57 21.6599 8.43999 19.0399 8.43999ZM22.2899 14.19C22.2899 15.98 20.8299 17.44 19.0399 17.44H9.03986C7.24986 17.44 5.78986 15.98 5.78986 14.19V13.19C5.78986 11.4 7.24986 9.93999 9.03986 9.93999H19.0399C20.8299 9.93999 22.2899 11.4 22.2899 13.19V14.19ZM24.0399 0.439993C22.2599 0.439993 20.7199 1.69999 20.3699 3.43999H7.71986C7.30986 1.40999 5.32986 0.0999931 3.29986 0.509993C1.54986 0.869993 0.289864 2.39999 0.299864 4.18999V14.19C0.299864 19.02 4.21986 22.93 9.04986 22.94H19.0499C23.8799 22.94 27.7899 19.02 27.7999 14.19V4.18999C27.7999 2.11999 26.1199 0.439993 24.0499 0.439993H24.0399ZM26.2899 14.19C26.2899 18.19 23.0399 21.44 19.0399 21.44H9.03986C5.03986 21.44 1.78986 18.19 1.78986 14.19V4.18999C1.78986 2.94999 2.79986 1.93999 4.03986 1.93999C5.27986 1.93999 6.28986 2.94999 6.28986 4.18999C6.28986 4.59999 6.62986 4.93999 7.03986 4.93999H21.0399C21.4499 4.93999 21.7899 4.59999 21.7899 4.18999C21.7899 2.94999 22.7999 1.93999 24.0399 1.93999C25.2799 1.93999 26.2899 2.94999 26.2899 4.18999V14.19ZM10.7899 13.69C10.7899 14.38 10.2299 14.94 9.53986 14.94C8.84986 14.94 8.28986 14.38 8.28986 13.69C8.28986 13 8.84986 12.44 9.53986 12.44C10.2299 12.44 10.7899 13 10.7899 13.69ZM19.7899 13.69C19.7899 14.38 19.2299 14.94 18.5399 14.94C17.8499 14.94 17.2899 14.38 17.2899 13.69C17.2899 13 17.8499 12.44 18.5399 12.44C19.2299 12.44 19.7899 13 19.7899 13.69Z" fill="black"/>
</svg>
