<svg width="28" height="26" viewBox="0 0 28 26" fill="none" xmlns="http://www.w3.org/2000/svg">
<path d="M9.01991 10.85C9.89991 11.95 10.9199 12.94 12.3199 13.31C13.8299 13.7 15.1399 13.1 16.4099 12.32C17.5099 11.64 18.5299 10.78 19.0999 9.59C19.7299 8.26 19.8499 6.63999 19.6399 5.18999C19.4099 3.65999 18.4899 2.45999 16.9499 2.06999C16.2599 1.88999 15.5099 1.82999 14.7999 1.70999C14.0899 1.58999 13.3499 1.39999 12.6199 1.38999C11.3099 1.36999 9.86991 2.14999 8.86991 2.95999C7.59991 3.98999 7.00991 5.52 7.38991 7.13L10.3299 4.86999C11.1799 5.38999 10.4899 6.29 10.8999 5.47C12.0199 3.18 8.75991 1.2 7.44991 3.45C7.30991 3.7 7.34991 3.61999 7.09991 3.77999C6.80991 3.95999 6.49991 4.11 6.19991 4.27C5.50991 4.64 4.82991 5.05 4.31991 5.65C3.48991 6.63 3.08991 7.97999 4.03991 9.02999C4.43991 9.46999 4.91991 9.75999 5.49991 9.88999C5.72991 9.94999 6.03991 10 6.27991 9.99C6.91991 9.97 6.27991 9.97 6.21991 9.9L5.70991 9.02L5.75991 9.22V8.16L5.68991 8.36L8.14991 6.95999C7.05991 6.66999 5.90991 6.21999 4.77991 6.31999C3.39991 6.43999 2.18991 7.62 2.31991 9.06C2.38991 9.91 2.88991 10.79 3.78991 10.99C4.11991 11.06 4.44991 11.13 4.77991 11.21L4.29991 7.54999C2.40991 8.83999 1.69991 10.89 1.72991 13.13C1.74991 14.13 1.75991 15.24 2.17991 16.16C2.38991 16.64 2.70991 17.05 3.07991 17.41C3.32991 17.65 3.69991 17.9 3.83991 18.15L5.56991 15.14C5.42991 15.12 5.28991 15.11 5.14991 15.09C4.28991 15 3.43991 15.78 3.21991 16.56C2.94991 17.53 3.14991 18.46 3.76991 19.25C4.04991 19.62 4.35991 19.89 4.73991 20.16C4.88991 20.27 5.03991 20.37 5.19991 20.47C5.35991 20.64 5.30991 20.48 5.04991 20.01C5.06991 22.28 8.32991 22.71 8.97991 20.54C9.26991 19.57 8.97991 18.6 8.22991 17.93C7.34991 17.13 6.28991 17.14 5.26991 17.61C3.15991 18.56 4.67991 21.83 6.80991 21.27C6.92991 21.24 7.18991 21.22 7.27991 21.14C7.50991 20.95 6.87991 20.11 6.71991 20.58C6.56991 21 6.72991 21.66 6.84991 22.06C7.21991 23.34 8.63991 23.86 9.78991 23.26C10.0099 23.14 10.2299 23.03 10.4499 22.91C11.3199 22.45 11.6499 21.28 11.2699 20.41C10.8299 19.42 9.92991 19.11 8.90991 19.25C8.38991 19.32 7.86991 19.39 7.34991 19.46C5.13991 19.76 5.63991 23.66 7.87991 23.39C8.48991 23.32 8.85991 23.6 9.39991 23.86C10.2099 24.26 10.9899 24.55 11.8899 24.65C13.3699 24.81 14.9399 24.54 16.3599 24.16C19.2499 23.38 21.8899 21.73 23.5299 19.18C24.4099 17.81 24.7899 16.27 24.9999 14.67C25.1899 13.15 25.3599 11.62 24.8699 10.14C23.9199 7.25999 21.6399 4.72999 19.1999 3.00999C17.7499 1.98999 15.7899 3.68 16.2599 5.27C16.4399 5.88 16.6299 6.5 16.8099 7.11C16.8899 7.39 16.9799 7.67 17.0599 7.95L17.1599 8.27999C17.2399 8.63999 17.2499 8.6 17.1799 8.15L17.6899 7.27L17.5399 7.43999C16.3499 8.81999 17.1999 10.68 18.9499 10.85C19.1999 10.87 19.4399 10.9 19.6899 10.92V6.91999C18.2499 6.99999 16.0099 6.7 14.8799 7.77C13.8399 8.75 13.3299 10.85 13.1399 12.22C12.9299 13.77 13.1999 15.37 14.0699 16.69C14.5599 17.44 15.8299 18.46 15.7399 19.21C15.4999 21.28 18.5299 21.79 19.4699 20.22C19.5799 20.03 19.9199 19.66 19.9699 19.46C20.0199 19.24 20.3599 19.55 19.8999 19.42L20.9599 15.56C20.0399 15.4 19.1399 15.18 18.2599 14.88C17.8699 14.75 17.4899 14.6 17.1199 14.43C16.9099 14.33 16.6999 14.23 16.4899 14.13C16.2399 14 15.8299 13.57 16.1799 14.1C16.6099 14.76 16.2099 13.91 16.1299 13.77C16.0099 13.56 15.8599 13.35 15.6899 13.18C15.3299 12.81 14.8999 12.59 14.4199 12.41C13.8799 12.21 13.8299 12.41 13.8899 11.93C13.9999 11.07 13.1899 10.21 12.4199 10C11.4999 9.75 10.7099 10.2 10.1599 10.92C9.60991 11.64 9.58991 12.58 9.78991 13.42C9.81991 13.53 9.97991 14.3 10.0599 14.33C9.86991 14.27 10.5799 13.35 9.91991 14.06C8.63991 15.42 7.98991 17.08 7.84991 18.93L11.5799 17.92C10.8699 16.39 9.16991 15.42 7.48991 15.54C6.40991 15.62 5.48991 16.4 5.48991 17.54C5.48991 18.56 6.40991 19.62 7.48991 19.54C7.89991 19.51 7.94991 19.56 8.12991 19.94C8.49991 20.73 9.58991 21.08 10.3899 20.86C11.2799 20.62 11.7899 19.82 11.8599 18.93C11.8999 18.36 12.0899 17.81 12.4099 17.33C12.7699 16.78 13.3199 16.4 13.6599 15.82C14.0799 15.1 14.1399 14.3 13.9799 13.5C13.9299 13.27 13.8599 13.04 13.7899 12.81C13.5599 12.02 13.8599 12.63 13.6199 12.94L9.88991 11.93C9.73991 13.15 10.2899 14.42 11.1999 15.23C11.6599 15.64 12.1899 15.89 12.7699 16.08C12.8899 16.11 13.0099 16.15 13.1299 16.18C13.5199 16.32 13.3499 16.13 12.5999 15.6C12.5699 15.84 12.9299 16.29 13.0599 16.47C13.7799 17.45 15.1199 17.91 16.2099 18.35C17.3999 18.83 18.6299 19.18 19.8899 19.4C20.9499 19.59 22.0399 19.11 22.3499 18C22.6399 16.95 21.9999 15.83 20.9499 15.54C18.7299 14.92 17.0699 16.39 16.0099 18.18L19.7399 19.19C19.9599 17.31 18.6099 16.15 17.6099 14.78C17.1799 14.19 16.9899 13.52 17.0699 12.8C17.1199 12.37 17.2599 11.94 17.3999 11.53C17.4699 11.31 17.5499 11.1 17.6299 10.89C17.6899 10.74 18.0099 10.25 17.7099 10.58L16.8299 11.09C16.5899 11.18 16.9599 11.06 17.0799 11.05C17.3899 11.02 17.6999 11.02 18.0099 11C18.5699 10.97 19.1299 10.94 19.6899 10.91C22.2999 10.77 22.2299 7.17 19.6899 6.91C19.4399 6.89 19.1999 6.86 18.9499 6.84L20.3599 10.25C21.8899 8.46 20.6899 6.14999 20.0999 4.18999L17.1599 6.45C18.7699 7.59 20.5799 9.54999 21.0799 11.51C21.3399 12.5 21.1199 13.68 20.9599 14.67C20.7899 15.73 20.4399 16.71 19.7699 17.56C18.4199 19.26 16.3699 20.12 14.2899 20.52C13.3099 20.71 12.3099 20.84 11.3799 20.4C10.2399 19.86 9.14991 19.23 7.83991 19.39L8.36991 23.32C8.88991 23.25 9.40991 23.18 9.92991 23.11L8.38991 19.45C8.16991 19.57 7.94991 19.68 7.72991 19.8L10.6699 21C10.5699 20.64 10.7199 20.06 10.6299 19.64C10.4799 18.94 10.1199 18.35 9.55991 17.9C8.42991 17 7.03991 17.07 5.71991 17.42L7.25991 21.08L7.42991 21L6.41991 21.27H6.60991C6.26991 21.19 5.93991 21.1 5.59991 21.01L5.14991 20.38V19.32L5.09991 19.5L9.02991 20.03C9.02991 19.17 8.73991 18.43 8.13991 17.8C7.88991 17.54 7.60991 17.33 7.31991 17.12C6.60991 16.62 7.26991 16.94 7.06991 17.63L5.13991 19.1C5.27991 19.12 5.41991 19.13 5.55991 19.15C7.14991 19.32 7.94991 17.35 7.28991 16.14C6.97991 15.58 6.56991 15.18 6.10991 14.77C5.90991 14.59 5.68991 14.2 5.83991 14.62C5.76991 14.42 5.77991 14.09 5.75991 13.84C5.70991 13.05 5.52991 11.56 6.31991 11.02C7.63991 10.12 7.63991 7.76 5.83991 7.36C5.50991 7.29 5.17991 7.21999 4.84991 7.13999L6.31991 9.06999V9.15C6.14991 9.44 5.97991 9.73999 5.80991 10.03V10.05C5.45991 10.14 5.12991 10.23 4.78991 10.32C5.51991 10.23 6.38991 10.63 7.09991 10.82C8.18991 11.11 9.20991 10.46 9.55991 9.41999C9.90991 8.37999 9.44991 7.2 8.51991 6.58C8.15991 6.34 7.77991 6.17 7.34991 6.08C7.08991 6.03 6.82991 6 6.56991 6C6.10991 5.96 6.21991 6.02 6.89991 6.2L7.40991 8.15C7.30991 8.44 7.40991 8.18999 7.64991 8.04999C8.00991 7.83999 8.37991 7.65999 8.74991 7.45999C9.62991 6.96999 10.4099 6.35 10.9299 5.47L7.47991 3.45C6.62991 5.18 6.48991 7.18999 8.34991 8.31999C9.88991 9.25999 11.6799 7.71 11.2899 6.06C11.3499 6.31 11.1499 6.27999 11.5099 5.95999C11.6399 5.83999 11.9299 5.73 12.0799 5.65C12.6999 5.33 12.6899 5.38 13.3999 5.5C14.1799 5.63 15.2099 5.61999 15.9299 5.91999C16.0499 5.96999 15.7299 5.66 15.7399 5.72C15.7799 5.93 15.7799 6.18999 15.7699 6.41999C15.7499 7.76999 15.3199 8.33999 14.1899 9.00999C13.8599 9.20999 13.5699 9.49 13.2099 9.38C12.6699 9.21 12.2199 8.43 11.8999 8.02C11.2299 7.18 9.77991 7.32 9.06991 8.02C8.23991 8.85 8.38991 9.99999 9.06991 10.85H9.01991Z" fill="#D4145A"/>
<path d="M7.54975 15.05C10.1197 15.05 10.1297 11.05 7.54975 11.05C4.96975 11.05 4.96975 15.05 7.54975 15.05Z" fill="#FBB03B"/>
<path d="M13.9999 9.28C16.5699 9.28 16.5799 5.28 13.9999 5.28C11.4199 5.28 11.4199 9.28 13.9999 9.28Z" fill="#FBB03B"/>
<path d="M19.52 15.14C22.09 15.14 22.1 11.14 19.52 11.14C16.94 11.14 16.94 15.14 19.52 15.14Z" fill="#FBB03B"/>
<path d="M13.58 21.25C16.15 21.25 16.16 17.25 13.58 17.25C11 17.25 11 21.25 13.58 21.25Z" fill="#FBB03B"/>
<path d="M26.5398 24.36H19.5398C25.7498 21.05 28.0998 13.32 24.7898 7.10999C21.4798 0.899988 13.7498 -1.45001 7.5398 1.85999C1.3298 5.16999 -1.0202 12.9 2.2898 19.11C4.5098 23.26 8.8298 25.86 13.5398 25.86H26.5398C26.9498 25.86 27.2898 25.52 27.2898 25.11C27.2898 24.7 26.9498 24.36 26.5398 24.36ZM2.2898 13.11C2.2898 6.89999 7.3298 1.85999 13.5398 1.85999C19.7498 1.85999 24.7898 6.89999 24.7898 13.11C24.7898 19.32 19.7498 24.36 13.5398 24.36C7.3298 24.36 2.2998 19.32 2.2898 13.11ZM13.5398 9.85999C15.0598 9.85999 16.2898 8.62999 16.2898 7.10999C16.2898 5.58999 15.0598 4.35999 13.5398 4.35999C12.0198 4.35999 10.7898 5.58999 10.7898 7.10999C10.7898 8.62999 12.0198 9.85999 13.5398 9.85999ZM13.5398 5.85999C14.2298 5.85999 14.7898 6.41999 14.7898 7.10999C14.7898 7.79999 14.2298 8.35999 13.5398 8.35999C12.8498 8.35999 12.2898 7.79999 12.2898 7.10999C12.2898 6.41999 12.8498 5.85999 13.5398 5.85999ZM16.2898 19.11C16.2898 17.59 15.0598 16.36 13.5398 16.36C12.0198 16.36 10.7898 17.59 10.7898 19.11C10.7898 20.63 12.0198 21.86 13.5398 21.86C15.0598 21.86 16.2898 20.63 16.2898 19.11ZM12.2898 19.11C12.2898 18.42 12.8498 17.86 13.5398 17.86C14.2298 17.86 14.7898 18.42 14.7898 19.11C14.7898 19.8 14.2298 20.36 13.5398 20.36C12.8498 20.36 12.2898 19.8 12.2898 19.11ZM19.5398 15.86C21.0598 15.86 22.2898 14.63 22.2898 13.11C22.2898 11.59 21.0598 10.36 19.5398 10.36C18.0198 10.36 16.7898 11.59 16.7898 13.11C16.7898 14.63 18.0198 15.86 19.5398 15.86ZM19.5398 11.86C20.2298 11.86 20.7898 12.42 20.7898 13.11C20.7898 13.8 20.2298 14.36 19.5398 14.36C18.8498 14.36 18.2898 13.8 18.2898 13.11C18.2898 12.42 18.8498 11.86 19.5398 11.86ZM7.5398 10.36C6.0198 10.36 4.7898 11.59 4.7898 13.11C4.7898 14.63 6.0198 15.86 7.5398 15.86C9.0598 15.86 10.2898 14.63 10.2898 13.11C10.2898 11.59 9.0598 10.36 7.5398 10.36ZM7.5398 14.36C6.8498 14.36 6.2898 13.8 6.2898 13.11C6.2898 12.42 6.8498 11.86 7.5398 11.86C8.2298 11.86 8.7898 12.42 8.7898 13.11C8.7898 13.8 8.2298 14.36 7.5398 14.36Z" fill="#3B3B3B"/>
</svg>
