<svg width="29" height="23" viewBox="0 0 29 23" fill="none" xmlns="http://www.w3.org/2000/svg">
<path d="M1.15987 3.94001L0.779862 10.52C0.709862 11.67 0.639865 12.83 0.579865 13.98C0.519865 15.19 0.889862 16.35 2.13986 16.8C3.19986 17.19 4.53987 17.02 5.65987 17.04C6.77987 17.06 7.90986 17.08 9.02986 17.1C11.3399 17.14 13.6399 17.19 15.9499 17.23C17.0499 17.25 17.9199 16.3 17.9499 15.23C18.0199 12.72 17.8999 10.23 17.8299 7.72001C17.8199 7.26001 17.7799 6.75001 17.9799 6.33001C17.8699 6.55001 18.2099 6.07001 18.0499 6.25001C18.0899 6.20001 18.4799 5.88001 18.3399 5.98001C18.8399 5.63001 19.5099 5.55001 19.9199 5.62001L20.4499 1.69001C15.3699 1.69001 10.2899 1.69001 5.19986 1.68001C3.94986 1.68001 2.55986 1.52001 1.59986 2.49001C0.719861 3.37001 0.719864 4.61001 1.03986 5.74001C1.71986 8.09001 2.05986 10.34 1.88986 12.79C1.81986 13.77 2.86986 14.93 3.88986 14.79C5.86986 14.53 6.64986 13.16 6.85986 11.31C7.04986 9.65001 7.18986 7.97001 7.34986 6.31001L3.61987 7.32001C4.38987 8.74001 4.51986 10.33 4.07986 11.88C3.65986 13.34 5.07986 14.75 6.53986 14.34C8.28986 13.84 9.38986 12.42 9.92986 10.74C10.3999 9.26001 10.0399 7.47001 10.8199 6.10001L8.07986 6.82001C9.47986 7.52001 8.92987 9.54001 8.61987 10.87C8.30987 12.2 9.22987 13.32 10.5499 13.4C14.1699 13.61 14.7699 8.46001 14.5599 5.88001C14.4699 4.80001 13.6999 3.88001 12.5599 3.88001C11.4899 3.88001 10.5399 4.80001 10.5599 5.88001C10.5999 8.22001 10.6499 10.56 10.6899 12.9L12.6899 10.9C11.0999 10.87 9.55986 10.68 8.00986 10.31C5.50986 9.72001 4.43986 13.57 6.94986 14.17C8.82986 14.62 10.7599 14.86 12.6999 14.9C13.7699 14.92 14.7199 13.97 14.6999 12.9C14.6599 10.56 14.6099 8.22001 14.5699 5.88001H10.5699C10.6399 6.70001 10.6499 7.53001 10.4799 8.34001C10.4099 8.67001 10.2199 9.12001 10.2099 9.40001C10.1899 9.83001 9.91986 9.36001 10.5599 9.40001L12.4899 11.93C13.2099 8.91001 13.3899 5.00001 10.1099 3.36001C9.14986 2.88001 7.92987 3.09001 7.36987 4.08001C6.53987 5.55001 6.49986 7.08001 6.28986 8.71001C6.23986 9.11001 6.12986 9.61001 6.00986 9.87001C5.96986 9.97001 5.69986 10.42 5.73986 10.33C5.55986 10.5 5.52986 10.54 5.62986 10.44C5.77986 10.41 5.72987 10.43 5.47987 10.49L7.93987 12.95C8.67987 10.37 8.34986 7.67001 7.06986 5.31001C6.64986 4.54001 5.63986 4.16001 4.80986 4.39001C3.90986 4.64001 3.42986 5.43001 3.33986 6.32001C3.23986 7.38001 3.12986 8.43001 3.02986 9.49001C2.97986 9.99001 2.93986 10.49 2.87986 10.99C2.87986 11.01 2.84986 11.49 2.83986 11.24C2.83986 11.68 2.57986 11.27 3.05986 11.04L4.06986 10.77L3.86987 10.8L5.86987 12.8C6.00987 10.68 5.83986 8.53001 5.35986 6.46001C5.24986 5.97001 5.11986 5.49001 4.96986 5.01001C4.91986 4.85001 4.87986 4.49001 4.77986 4.37001C4.71986 3.98001 4.53986 4.19001 4.24986 4.98001C3.58986 5.51001 3.47986 5.74001 3.92986 5.70001C4.31986 5.85001 5.08986 5.70001 5.52986 5.70001C6.11986 5.70001 6.70987 5.70001 7.29987 5.70001C11.6699 5.70001 16.0499 5.70001 20.4199 5.70001C22.6099 5.70001 23.2299 2.19001 20.9499 1.77001C18.1799 1.26001 15.0499 2.40001 14.0899 5.26001C13.5699 6.80001 13.8499 8.49001 13.8999 10.08C13.9599 11.79 13.9599 13.51 13.9099 15.22L15.9099 13.22C13.7199 13.18 11.5299 13.14 9.33986 13.09C7.14986 13.04 4.99986 13.14 2.85986 12.95L3.86987 13.22L3.63986 13.1L4.35986 13.82C4.48986 14.41 4.54986 14.46 4.52986 13.95L4.56986 13.26L4.64986 11.87L4.79987 9.27001L5.10986 3.90001C5.16986 2.82001 4.14986 1.90001 3.10986 1.90001C1.97986 1.90001 1.16986 2.82001 1.10986 3.90001L1.15987 3.94001Z" fill="#D4145A"/>
<path d="M17.5499 8.34V13.01C17.5499 14.53 17.4599 16.07 17.5599 17.58C17.6299 18.63 17.8099 19.84 18.6199 20.6C19.5199 21.44 20.6499 21.43 21.7999 21.45C23.5499 21.48 25.5899 21.82 26.9099 20.39C28.1599 19.03 27.8699 17.08 27.8999 15.39C27.9199 13.84 27.9899 12.28 28.1199 10.73C28.1799 9.99 28.2799 9.26 28.3199 8.52C28.3999 7.14 27.6299 5.93 26.3099 5.47C25.5499 5.2 24.5699 5.32 23.7599 5.32C22.7399 5.32 21.6099 5.17 20.6799 5.68C18.5299 6.87 19.0699 9.79 19.6099 11.73C19.7199 12.11 19.8299 12.49 19.9099 12.88C19.9099 12.91 19.9799 13.53 19.9599 13.14C19.9399 12.78 19.9599 13.57 19.9599 13.65C19.9599 13.79 19.9599 13.93 19.9399 14.07C19.9299 14.21 19.9199 14.35 19.8999 14.49C19.9399 14.18 19.9399 14.17 19.8999 14.46C19.8099 14.88 19.7399 15.3 19.6399 15.72C19.3599 16.99 20.0199 18.48 21.3899 18.8C22.6499 19.09 24.1699 18.42 24.4699 17.05C24.8599 15.27 25.1099 13.55 24.7799 11.74C24.6599 11.09 24.4499 10.46 24.2799 9.82C24.2299 9.63 24.1899 9.44 24.1499 9.25C24.1499 9.55 24.0399 8.78 24.1499 9.25C24.1499 9.09 24.1399 8.93 24.1399 8.77C24.1399 8.31 24.1099 9.02 24.0099 9.16L23.1099 10.06C22.1299 10.25 21.9099 10.34 22.4399 10.32C22.5899 10.32 22.7399 10.32 22.8899 10.32C23.1899 10.32 23.4799 10.32 23.7799 10.32C24.0799 10.32 24.3699 10.32 24.6699 10.32C24.8199 10.32 24.9699 10.32 25.1199 10.32C25.4599 10.32 25.4199 10.32 24.9999 10.29L23.8999 9.65L23.3499 8.38V8.52C23.2999 8.66 23.3099 8.82 23.2899 8.96C23.2599 9.29 23.2199 9.62 23.1999 9.95C23.1399 10.58 23.0999 11.2 23.0599 11.83C22.9799 13.09 22.9299 14.34 22.9199 15.6C22.9199 16.19 22.9199 16.78 22.9199 17.38C22.9199 17.5 22.8999 17.63 22.9199 17.74C22.9499 18.01 23.0299 17.25 22.9499 17.51C22.9199 17.64 22.9399 17.6 23.0099 17.41C23.0499 17.29 23.1099 17.18 23.2099 17.09C23.4599 16.79 23.8499 16.63 24.1999 16.5C24.3799 16.48 24.3999 16.47 24.2599 16.48C24.1599 16.48 24.0499 16.48 23.9499 16.48C23.7999 16.48 23.6499 16.48 23.5099 16.48C23.2099 16.48 22.9199 16.48 22.6199 16.47C22.2899 16.47 21.9499 16.46 21.6199 16.45C21.4699 16.45 21.3199 16.45 21.1799 16.45C20.2899 16.44 21.5799 16.28 22.0999 16.95L22.7399 18.05C22.6999 17.94 22.5399 17.64 22.5799 17.51C22.6099 17.82 22.6199 17.88 22.6099 17.68C22.6099 17.58 22.5999 17.48 22.5899 17.38C22.5699 16.96 22.5899 16.54 22.5899 16.12V13.56C22.5899 11.82 22.5899 10.08 22.5899 8.34C22.5899 7.03 21.4399 5.78 20.0899 5.84C18.7399 5.9 17.5899 6.94 17.5899 8.34H17.5499Z" fill="#FBB03B"/>
<path d="M25.8101 4.63H23.5601V3.38C23.5601 1.86 22.3301 0.630005 20.8101 0.630005H2.81006C1.29006 0.630005 0.0600586 1.86 0.0600586 3.38V15.38C0.0600586 16.9 1.29006 18.13 2.81006 18.13H17.0601V19.38C17.0601 20.9 18.2901 22.13 19.8101 22.13H25.8101C27.3301 22.13 28.5601 20.9 28.5601 19.38V7.38C28.5601 5.86 27.3301 4.63 25.8101 4.63ZM2.81006 16.63C2.12006 16.63 1.56006 16.07 1.56006 15.38V3.38C1.56006 2.69 2.12006 2.13 2.81006 2.13H20.8101C21.5001 2.13 22.0601 2.69 22.0601 3.38V4.63H19.8101C18.2901 4.63 17.0601 5.86 17.0601 7.38V16.63H2.81006ZM27.0601 19.38C27.0601 20.07 26.5001 20.63 25.8101 20.63H19.8101C19.1201 20.63 18.5601 20.07 18.5601 19.38V7.38C18.5601 6.69 19.1201 6.13 19.8101 6.13H25.8101C26.5001 6.13 27.0601 6.69 27.0601 7.38V19.38ZM14.5601 21.38C14.5601 21.79 14.2201 22.13 13.8101 22.13H8.81006C8.40006 22.13 8.06006 21.79 8.06006 21.38C8.06006 20.97 8.40006 20.63 8.81006 20.63H13.8101C14.2201 20.63 14.5601 20.97 14.5601 21.38ZM24.5601 9.38C24.5601 9.79 24.2201 10.13 23.8101 10.13H21.8101C21.4001 10.13 21.0601 9.79 21.0601 9.38C21.0601 8.97 21.4001 8.63 21.8101 8.63H23.8101C24.2201 8.63 24.5601 8.97 24.5601 9.38Z" fill="#3B3B3B"/>
</svg>
