<svg width="25" height="27" viewBox="0 0 25 27" fill="none" xmlns="http://www.w3.org/2000/svg">
<path d="M4.21988 25.23C8.07988 25.23 8.08988 19.23 4.21988 19.23C0.349883 19.23 0.349883 25.23 4.21988 25.23Z" fill="#D4145A"/>
<path d="M20.2902 21.15C24.1502 21.15 24.1602 15.15 20.2902 15.15C16.4202 15.15 16.4202 21.15 20.2902 21.15Z" fill="#D4145A"/>
<path d="M7.01993 6.91002L6.93993 8.00002C6.83993 9.34002 8.29993 10.22 9.46993 9.93002C10.9399 9.56002 12.4099 9.19002 13.8899 8.83002C14.6299 8.64002 15.3699 8.45002 16.1199 8.28002C16.7499 8.14002 17.1999 8.14002 17.9399 8.15002C18.7699 8.16002 19.5399 8.00002 20.2899 7.63002C20.5399 7.51002 20.7699 7.35002 21.0099 7.22002C21.0499 7.19002 21.3399 6.99002 21.1699 7.12002C21.0399 7.17002 21.0699 7.16002 21.2499 7.10002L21.0499 7.13002L20.8599 7.10002L21.3899 7.17002C21.7199 7.19002 22.0199 7.12002 22.3299 7.00002C22.8199 6.81002 23.1799 6.50002 23.4599 6.06002C23.9199 5.31002 23.8899 4.17002 23.9999 3.31002C24.2099 1.72002 22.1699 0.940021 20.9899 1.58002C20.4999 1.85002 20.3099 1.94002 19.7799 2.11002C19.5199 2.19002 19.2599 2.26002 18.9999 2.32002C18.9099 2.34002 18.3199 2.43002 18.5099 2.41002C17.3899 2.52002 16.2899 2.36002 15.1999 2.77002C14.1099 3.18002 13.4099 3.58002 12.2899 3.86002C11.1699 4.14002 10.0999 4.28002 8.99993 4.44002C7.89993 4.60002 7.33993 5.96002 7.59993 6.90002C7.91993 8.05002 8.98993 8.45002 10.0599 8.30002C11.1299 8.15002 12.2699 7.99002 13.3499 7.72002C13.8899 7.59002 14.4199 7.42002 14.9299 7.22002C15.3099 7.07002 15.6799 6.91002 16.0399 6.74002C16.1699 6.68002 16.2999 6.62002 16.4299 6.56002C16.3199 6.61002 16.3199 6.61002 16.4499 6.56002C16.5499 6.52002 16.6499 6.49002 16.7599 6.47002C16.5999 6.48002 16.6399 6.47002 16.8999 6.47002C17.1599 6.47002 17.4299 6.47002 17.6899 6.47002C18.3299 6.47002 18.9699 6.39002 19.5999 6.29002C20.7899 6.10002 21.9499 5.64002 22.9999 5.06002L19.9899 3.33002C19.9599 3.59002 19.9199 3.84002 19.8899 4.10002L19.8599 4.36002C19.7899 4.78002 19.8299 4.70002 19.9699 4.12002L20.6899 3.40002L20.5499 3.47002L21.5599 3.20002C22.1999 3.22002 21.0399 3.15002 20.8799 3.16002C20.5499 3.17002 20.2499 3.24002 19.9399 3.34002C19.3999 3.52002 18.9199 3.83002 18.4299 4.11002C18.2399 4.20002 18.2099 4.22002 18.3399 4.16002C18.4799 4.10002 18.4299 4.11002 18.1899 4.18002C18.3999 4.18002 17.6799 4.15002 17.5899 4.15002C16.9299 4.14002 16.2899 4.20002 15.6399 4.31002C13.2099 4.74002 10.7999 5.49002 8.39993 6.09002L10.9299 8.02002L11.0099 6.93002C11.0899 5.88002 10.0299 4.88002 9.00993 4.93002C7.85993 4.98002 7.09993 5.81002 7.00993 6.93002L7.01993 6.91002Z" fill="#FBB03B"/>
<path d="M24.21 0.280002C24.03 0.140002 23.79 0.0900031 23.57 0.140003L7.57001 4.14C7.24001 4.22 7.00001 4.52 7.00001 4.87V19.13C5.21001 17.61 2.53001 17.83 1.01001 19.62C-0.509987 21.41 -0.289987 24.09 1.50001 25.61C3.29001 27.13 5.97001 26.91 7.49001 25.12C8.14001 24.35 8.50001 23.37 8.50001 22.37V11.46L23 7.84V15.14C21.21 13.62 18.53 13.84 17.01 15.63C15.49 17.42 15.71 20.1 17.5 21.62C19.29 23.14 21.97 22.92 23.49 21.13C24.14 20.36 24.5 19.38 24.5 18.38V0.880005C24.5 0.650005 24.39 0.430005 24.21 0.290005V0.280002ZM4.25001 25.12C2.73001 25.12 1.50001 23.89 1.50001 22.37C1.50001 20.85 2.73001 19.62 4.25001 19.62C5.77001 19.62 7.00001 20.85 7.00001 22.37C7.00001 23.89 5.77001 25.12 4.25001 25.12ZM8.50001 9.91V5.46L23 1.84V6.29L8.50001 9.91ZM20.25 21.12C18.73 21.12 17.5 19.89 17.5 18.37C17.5 16.85 18.73 15.62 20.25 15.62C21.77 15.62 23 16.85 23 18.37C23 19.89 21.77 21.12 20.25 21.12Z" fill="#3B3B3B"/>
</svg>
