<svg width="23" height="29" viewBox="0 0 23 29" fill="none" xmlns="http://www.w3.org/2000/svg">
<path d="M6.5398 5.71C5.6598 6.67 4.8298 7.87 5.1298 9.25C5.2698 9.91 5.6798 10.34 6.0298 10.88C6.3798 11.42 6.5798 12.01 6.7898 12.61C7.3098 14.1 9.1198 13.96 9.6798 12.61C10.3198 11.1 10.3798 9.48 10.0098 7.89L7.8098 9.58C9.3498 10.31 10.8598 10.32 12.5098 10.05C13.2298 9.93 13.9798 9.82 14.6498 9.51C15.3898 9.16 15.7398 8.59 16.2698 8.01L13.9098 7.71C14.0298 7.9 14.1498 8.1 14.2698 8.29C15.0198 9.5 17.1398 9.07 17.0698 7.53C17.0498 6.99 16.9398 6.52 16.6298 6.07C15.6798 4.69 13.4998 5.51999 13.8898 7.23C14.1198 8.24 14.5398 9.18999 15.1598 10.03V8.52L14.1298 10.43C14.0998 10.48 13.6698 11.3 13.6598 11.3C14.1698 11.13 14.2498 11.06 13.9098 11.09C13.7198 11.09 13.5298 11.09 13.3498 11.09C11.9698 11.09 10.5998 11.1 9.2198 11.11L10.6698 13.01C10.9198 11.65 13.5798 12.28 14.5098 12.25L13.4498 9.68999C12.0598 10.85 11.3698 12.33 12.1498 14.07C12.4398 14.73 12.7398 15.29 12.9198 15.99C13.1398 16.86 13.3598 17.68 13.7598 18.48C14.5498 20.03 15.4698 21.47 16.1698 23.08C16.8698 24.69 17.3398 26.83 18.7698 27.83L19.5298 25.03C14.1098 24.59 8.6698 24.68 3.2398 24.78L4.6898 26.68C5.0198 25.77 5.4698 24.91 6.0198 24.11C6.5698 23.31 7.2498 22.63 7.6198 21.7C7.9898 20.77 8.1898 19.8 8.5798 18.89C9.0198 17.85 9.5598 16.86 10.0998 15.88L7.5098 14.37C6.1398 17.6 4.2398 20.95 3.9798 24.51C3.9198 25.31 4.7098 26.02 5.4798 26.01C9.5698 25.95 13.6498 25.99 17.7398 26.15C19.4898 26.22 19.6998 23.72 18.1398 23.2C14.6198 22.04 10.8998 22.45 7.2898 21.82L8.1898 24.02C7.4598 24.33 7.3098 24.47 7.7498 24.42C7.9498 24.42 8.1398 24.41 8.3398 24.4C8.6698 24.4 8.9898 24.38 9.3198 24.37C10.0398 24.35 10.7598 24.33 11.4798 24.31C12.9198 24.27 14.3598 24.23 15.7998 24.2C17.5698 24.15 17.7298 21.85 16.1998 21.25C13.6598 20.26 10.8798 20.99 8.3198 20.19V23.08C10.5898 22.24 13.0398 23.04 15.3898 22.84C16.9998 22.7 17.5098 20.36 15.7898 19.89C14.5998 19.57 13.4098 19.33 12.1898 19.17C11.6498 19.1 11.1098 19.04 10.5598 19C10.2598 18.98 9.9598 18.96 9.6498 18.95H9.2898C8.7798 18.87 8.7998 18.96 9.3398 19.22L9.5398 19.98V19.71C9.4898 19.96 9.4198 20.21 9.3498 20.47C9.1598 20.52 9.2498 20.5 9.6098 20.41C9.8198 20.4 10.0298 20.39 10.2298 20.4C10.5798 20.4 10.9298 20.45 11.2698 20.47C12.1098 20.54 12.8998 20.53 13.7398 20.38C14.7598 20.2 15.0298 18.96 14.6398 18.18C14.2498 17.4 14.4098 16.69 14.2398 15.9C14.0098 14.86 13.1798 14.48 12.1998 14.43C11.3698 14.39 10.3098 14.28 9.5398 14.64C8.6698 15.04 8.3798 16.03 8.0498 16.86C7.6598 17.84 8.6298 18.68 9.4998 18.76C10.3698 18.84 11.2098 18.91 12.0598 18.98C13.9798 19.15 13.9698 16.15 12.0598 15.98C11.2098 15.91 10.3498 15.83 9.4998 15.76L10.9498 17.66C10.9898 17.56 11.2598 17.12 11.2298 17.03C10.4098 17.33 10.2298 17.47 10.6898 17.44C10.8198 17.44 10.9398 17.44 11.0698 17.44C11.2498 17.44 11.6698 17.52 11.8298 17.44C12.1898 17.49 12.1298 17.33 11.6598 16.97C11.3598 16.38 11.2398 16.33 11.2998 16.82C11.1998 17.77 11.6498 18.87 12.0598 19.7L12.9598 17.5C11.5298 17.75 10.0998 17.21 8.6598 17.56C7.2198 17.91 6.0598 19.26 6.7598 20.75C7.4598 22.24 9.0698 21.92 10.3898 22C11.9598 22.1 13.4898 22.38 14.9998 22.79L15.3998 19.84C12.7598 20.07 10.0998 19.24 7.5298 20.19C6.1698 20.69 6.0498 22.63 7.5298 23.08C10.0998 23.87 12.8998 23.16 15.4098 24.14L15.8098 21.19C13.9098 21.24 12.0198 21.29 10.1198 21.34C8.7198 21.38 6.4098 20.98 5.6198 22.49C5.2098 23.27 5.5098 24.52 6.5198 24.69C10.1198 25.31 13.8798 24.92 17.3698 26.07L17.7698 23.12C13.6798 22.97 9.5998 22.92 5.5098 22.98L7.0098 24.48C7.1198 22.99 7.6998 21.59 8.2698 20.23C8.8898 18.77 9.5098 17.32 10.1298 15.86C10.4498 15.11 10.3498 14.26 9.5898 13.81C8.9098 13.4 7.9198 13.64 7.5398 14.35C6.9998 15.35 6.4698 16.34 6.0098 17.38C5.5498 18.42 5.3198 19.54 4.8898 20.57C4.5398 21.41 3.7798 22.09 3.2798 22.85C2.6698 23.79 2.2098 24.81 1.8298 25.87C1.4998 26.79 2.3598 27.79 3.2798 27.77C8.7098 27.67 14.1498 27.58 19.5698 28.02C21.1798 28.15 21.4298 26 20.3298 25.22C20.7898 25.54 20.3698 25.12 20.2498 24.87C20.0898 24.54 19.9498 24.21 19.7998 23.88C19.5098 23.21 19.2298 22.54 18.9398 21.87C18.3498 20.5 17.7198 19.16 16.9398 17.89C16.2398 16.74 16.0598 15.63 15.6198 14.38C15.4798 13.97 14.8598 13.12 14.8598 12.7C14.8598 12.3 15.2698 12.05 15.5998 11.77C16.6098 10.93 15.7798 9.17 14.5398 9.21C13.1198 9.26 11.6598 8.95999 10.2898 9.47999C9.0898 9.92999 8.0398 10.87 7.8098 12.18C7.6398 13.12 8.2098 14.08 9.2598 14.08C10.9798 14.08 12.8998 14.29 14.5998 14.02C16.2998 13.75 17.0698 11.37 17.7998 10.01C18.0398 9.57 18.1098 8.93 17.7998 8.5C17.3198 7.84 17.0198 7.21 16.8398 6.41L14.0998 7.57L14.1298 7.52L16.9298 6.76C16.8098 6.57 16.6898 6.37 16.5698 6.18C16.0798 5.39 14.8798 5.14 14.2098 5.88C13.9698 6.14 13.7798 6.57 13.4898 6.77C13.1698 6.99 12.4698 7.03 12.0898 7.1C11.2198 7.26 10.2098 7.38 9.3798 6.99C8.2098 6.44 6.8598 7.35 7.1798 8.68C7.4398 9.77 7.2898 10.77 6.8498 11.8H9.7398C9.4498 10.97 9.1498 10.1 8.6698 9.35C8.5898 9.22 8.1098 8.6 8.1098 8.67C8.1098 8.38 8.5398 8.01 8.7198 7.81C10.0198 6.39 7.9098 4.26 6.5998 5.69L6.5398 5.71Z" fill="#D4145A"/>
<path d="M5.70977 6.15999C5.21977 6.77999 4.71977 7.38999 4.56977 8.18999C4.37977 9.17999 4.56977 10.11 5.10977 10.96C5.36977 11.37 5.62977 11.78 5.89977 12.18C6.19977 12.61 6.51977 13.04 6.99977 13.29C7.52977 13.57 8.09977 13.67 8.68977 13.67C9.72977 13.67 10.7698 13.67 11.8098 13.67C13.0898 13.67 14.5998 13.52 15.4698 12.43L11.5398 11.92L11.5998 12.02L11.3498 11.42L11.3798 11.54L11.2898 10.88V11C11.3298 10.78 11.3598 10.56 11.3898 10.34L11.3698 10.46L11.6198 9.85999L11.5698 9.96999C11.2998 10.58 11.0998 11.23 11.3198 11.9C11.4898 12.43 11.7798 12.86 12.2198 13.2C13.1998 13.96 14.5998 13.88 15.4998 13C16.1498 12.36 16.8198 11.66 17.2298 10.84C17.5598 10.16 17.7198 9.57999 17.7898 8.82999C17.8498 8.20999 17.7198 7.58999 17.6298 6.97999C17.5698 6.59999 17.2498 6.13999 16.9898 5.87999C16.5998 5.48999 16.0998 5.26999 15.5498 5.18999C14.6298 5.06999 13.4898 5.48999 13.0598 6.37999C13.0598 6.38999 12.9198 6.66999 12.8998 6.65999C12.8798 6.64999 13.3698 6.11999 13.0398 6.42999C12.8798 6.57999 13.5998 6.09999 13.2398 6.25999C13.1398 6.30999 13.0498 6.35999 12.9398 6.40999L13.5398 6.15999C13.2498 6.27999 12.9598 6.34999 12.6598 6.38999L13.3198 6.29999C12.7098 6.36999 12.1098 6.29999 11.4998 6.26999C10.6598 6.20999 9.78977 6.24999 8.96977 6.48999C7.71977 6.84999 6.79977 8.26999 7.21977 9.56999C7.63977 10.87 8.94977 11.71 10.2998 11.32C10.4898 11.26 10.6798 11.22 10.8798 11.19L10.2198 11.28C10.8298 11.22 11.4298 11.28 12.0298 11.32C12.7198 11.37 13.3498 11.32 14.0398 11.22C15.3798 11 16.7598 10.16 17.3698 8.90999L12.7998 8.30999C12.8198 8.40999 12.8298 8.50999 12.8398 8.60999L12.7498 7.94999C12.7898 8.24999 12.7998 8.53999 12.7798 8.83999L12.8698 8.17999C12.8398 8.39999 12.7798 8.59999 12.6998 8.80999L12.9498 8.20999C12.8798 8.36999 12.7998 8.51999 12.7098 8.66999C12.6598 8.73999 12.6098 8.81999 12.5598 8.88999C12.8198 8.55999 12.8698 8.49999 12.6998 8.69999C12.4598 8.96999 12.2098 9.22999 11.9498 9.47999L15.8798 12.51C16.1098 11.99 16.3098 11.55 16.2898 10.96C16.2698 10.41 16.1298 9.88999 15.8498 9.41999C15.4498 8.73999 14.7898 8.32999 14.0198 8.22999C13.3098 8.12999 12.3998 8.30999 11.9198 8.91999C11.8798 8.97999 11.8298 9.03999 11.7698 9.08999C12.1398 8.82999 12.2198 8.74999 11.9998 8.86999L12.5998 8.61999C12.4198 8.68999 12.2398 8.73999 12.0498 8.75999L12.7098 8.66999C12.0298 8.73999 11.3298 8.69999 10.6498 8.69999C9.88977 8.69999 9.12977 8.71999 8.37977 8.69999L9.03977 8.78999L8.90977 8.74999L9.50977 8.99999C10.1898 9.75999 10.3898 9.94999 10.1198 9.54999L10.0398 9.41999C9.93977 9.26999 9.84977 9.11999 9.74977 8.96999C9.57977 8.69999 9.38977 8.43999 9.23977 8.14999L9.48977 8.74999C9.42977 8.60999 9.39977 8.49999 9.37977 8.34999L9.46977 9.00999V8.87999C9.43977 9.09999 9.40977 9.31999 9.37977 9.53999C9.37977 9.44999 9.40977 9.36999 9.43977 9.28999L9.18977 9.88999C9.27977 9.66999 9.70977 9.11999 9.22977 9.71999C9.65977 9.18999 9.95977 8.66999 9.95977 7.94999C9.95977 7.33999 9.68977 6.59999 9.22977 6.17999C8.31977 5.34999 6.56977 5.08999 5.68977 6.17999L5.70977 6.15999Z" fill="#FBB03B"/>
<path d="M22.04 26.14C22.04 26.14 22.04 26.12 22.03 26.12L16.29 13.89L18.93 9.74999V9.72999C19.27 9.17999 19.27 8.47999 18.94 7.92999C18.94 7.90999 18.92 7.89999 18.91 7.87999L16.19 3.98999V0.829987C16.19 0.419987 15.85 0.0799866 15.44 0.0799866C15.03 0.0799866 14.69 0.419987 14.69 0.829987V3.96999L13.98 4.85999C12.86 6.25999 10.81 6.48999 9.40998 5.36999C9.21998 5.21999 9.04998 5.04999 8.89998 4.85999L8.18998 3.96999V0.829987C8.18998 0.419987 7.84998 0.0799866 7.43998 0.0799866C7.02998 0.0799866 6.68998 0.419987 6.68998 0.829987V3.99999L3.96998 7.88999C3.96998 7.88999 3.94998 7.91999 3.93998 7.93999C3.60998 8.48999 3.60998 9.18999 3.93998 9.73999V9.75999L6.58998 13.9L0.84998 26.13C0.84998 26.13 0.849981 26.15 0.839981 26.15C0.459981 27.04 0.86998 28.07 1.75998 28.45C1.97998 28.54 2.20998 28.59 2.44998 28.59H20.45C21.42 28.59 22.2 27.81 22.2 26.84C22.2 26.6 22.15 26.37 22.06 26.15L22.04 26.14ZM5.20998 8.94999C5.16998 8.87999 5.16998 8.78999 5.20998 8.70999L7.46998 5.46999L7.71998 5.77999C9.35998 7.82999 12.35 8.15999 14.4 6.51999C14.67 6.29999 14.92 6.04999 15.14 5.77999L15.39 5.46999L17.65 8.69999C17.69 8.76999 17.69 8.85999 17.65 8.93999L15.03 13.06H7.83998L5.20998 8.93999V8.94999ZM20.64 26.96C20.59 27.03 20.52 27.07 20.43 27.07H2.42998C2.28998 27.07 2.17998 26.96 2.17998 26.82C2.17998 26.79 2.17998 26.76 2.19998 26.73L7.90998 14.57H14.96L20.67 26.73C20.7 26.81 20.69 26.89 20.65 26.96H20.64Z" fill="black"/>
</svg>
