<svg width="28" height="27" viewBox="0 0 28 27" fill="none" xmlns="http://www.w3.org/2000/svg">
<path d="M4.08993 8.99999L5.04994 10.03V8.61999L4.92994 8.68999L6.42994 9.54999C6.48994 9.03999 6.46994 8.43999 6.63994 7.94999L5.93994 8.64999C6.64994 8.40999 7.60993 8.62999 8.34993 8.61999C9.14993 8.61999 9.92993 8.51999 10.6699 8.22999C11.6299 7.85999 11.6199 6.14999 10.3999 6.26999C9.89994 6.31999 8.97994 6.58999 8.49994 6.42999L9.09993 6.88999L8.99994 6.71999L9.09993 7.48999C8.78993 7.73999 8.84994 7.80999 9.28994 7.70999C9.54994 7.70999 9.79993 7.70999 10.0599 7.70999C10.4399 7.70999 10.8299 7.70999 11.2099 7.70999C12.0999 7.70999 12.9999 7.69999 13.8899 7.68999C15.1899 7.68999 15.1699 5.76999 13.8899 5.68999C13.2099 5.64999 12.5299 5.59999 11.8499 5.55999L12.5599 7.26999C12.3599 7.45999 12.5699 7.32999 12.7899 7.32999C13.0299 7.32999 13.2799 7.31999 13.5299 7.30999C14.0199 7.30999 14.5099 7.29999 14.9999 7.30999C16.0699 7.32999 17.1399 7.41999 18.1899 7.65999C19.0499 7.85999 19.8899 8.16999 20.7199 8.48999C21.1799 8.65999 21.6399 8.83999 22.0999 9.01999C22.4199 9.13999 23.2499 9.28999 23.4699 9.52999L23.1799 8.81999C23.2599 8.58999 23.2499 8.58999 23.1199 8.80999C23.0099 8.96999 22.9099 9.12999 22.7999 9.28999C22.5899 9.60999 22.3799 9.92999 22.1699 10.25C21.8099 10.8 21.4599 11.56 20.9099 11.96L22.3799 12.56C22.2299 11.98 22.7899 11.41 23.0399 10.93C23.2899 10.45 23.4199 9.96999 23.4499 9.40999C23.4799 8.89999 22.9699 8.36999 22.4499 8.40999C20.3399 8.56999 19.7799 10.48 19.1599 12.18C18.7699 13.24 20.4799 13.96 20.9899 12.95C21.6199 11.71 21.2399 10.34 21.7599 9.09999C22.1899 8.06999 20.7599 7.57999 20.0899 8.12999C19.5199 8.58999 19.0899 9.16999 18.8099 9.85999C18.5599 10.49 18.6499 11.09 18.5099 11.71C18.4899 11.98 18.5099 12 18.5499 11.77C18.3599 11.81 18.1799 11.85 17.9899 11.88C17.6199 11.94 17.2099 11.99 16.8299 11.95C15.9899 11.85 15.7099 11.19 15.1399 10.66C12.7699 8.45999 9.06994 7.63999 5.93994 7.88999L6.79994 9.38999C6.66994 9.60999 6.68994 9.43999 7.00994 9.45999C7.32994 9.47999 7.65994 9.42999 7.97994 9.41999C8.61994 9.38999 9.26994 9.35999 9.90994 9.32999C11.1299 9.27999 12.3399 9.21999 13.5599 9.16999C14.7799 9.11999 15.8999 9.06999 17.0799 9.06999C18.2599 9.06999 19.4099 9.00999 20.4499 9.54999L20.9499 7.68999C19.5399 7.81999 18.1299 7.86999 16.7099 7.82999C15.4999 7.79999 14.3599 7.70999 13.2699 8.32999C12.5199 8.74999 12.6799 9.93999 13.5099 10.16C14.4099 10.39 15.3199 10.49 16.2499 10.54C16.7299 10.57 17.2099 10.58 17.6799 10.61C17.9499 10.63 18.2199 10.66 18.4799 10.69C18.8499 10.85 18.9299 10.81 18.7199 10.55L19.6799 9.27999C18.5299 9.34999 17.4699 9.19999 16.3399 9.08999C15.5799 9.00999 14.7299 9.31999 14.6799 10.22C14.6299 11.12 15.4099 11.52 16.1599 11.64C17.2199 11.81 18.2799 11.67 19.2899 12.08L19.0499 10.25C18.6399 10.5 18.1199 10.34 17.6699 10.31C17.1399 10.28 16.6099 10.3 16.1199 10.53C15.5199 10.81 15.5099 10.94 14.7999 10.79C14.1499 10.65 13.6699 10.41 13.2499 9.88999C12.6299 9.10999 11.2599 9.94999 11.5799 10.86C11.9899 12.02 12.1499 13.15 12.0699 14.38C11.9999 15.44 13.4199 15.65 13.9299 14.88C14.3999 14.18 14.8699 13.47 15.3499 12.77L13.4899 12.27C13.5499 12.8 13.5699 13.29 13.4899 13.82C13.3099 14.88 14.7199 15.63 15.3199 14.59C15.4699 14.33 15.6199 14.25 15.9099 14.32L15.6699 12.49C14.0099 13.29 13.1699 14.93 12.5799 16.59L14.5099 17.12C14.6799 16.48 14.9499 15.91 15.3699 15.4L13.6999 14.43C13.2099 15.79 12.8199 17.18 12.5399 18.6L14.3699 18.36C13.7899 17.24 13.5299 16.06 13.5499 14.8C13.5599 13.47 11.7099 13.57 11.5499 14.8C11.3999 15.95 10.7399 16.57 9.98993 17.35C9.31993 18.06 9.51994 18.95 10.0499 19.67C11.3099 21.39 12.7699 22.92 13.6799 24.88C14.0199 25.62 15.0199 25.43 15.4099 24.88C16.0799 23.93 16.9699 22.58 16.5399 21.38C16.0399 19.99 14.9699 18.99 15.0699 17.41C15.1199 16.66 14.1799 16.16 13.5699 16.55C12.6599 17.12 10.5499 17.91 10.9199 19.3C11.1099 20.01 11.7599 20.7 12.1499 21.3C12.6399 22.04 13.1199 22.79 13.6099 23.53C14.3099 24.6 16.0399 23.6 15.3399 22.52C14.8899 21.83 14.4399 21.14 13.9799 20.45C13.7699 20.13 13.5599 19.81 13.3499 19.49C13.2499 19.33 13.1399 19.17 13.0399 19.01C12.8399 18.63 12.7799 18.58 12.8799 18.85L12.5899 19.56C13.1199 19.04 13.9599 18.67 14.5799 18.27L13.0799 17.41C12.9999 18.62 13.4199 19.72 13.9699 20.78C14.1899 21.2 14.6499 21.75 14.6299 22.21C14.5999 22.72 13.9799 23.46 13.6899 23.87H15.4199C14.5799 22.05 13.2699 20.54 12.0399 18.97C11.9599 18.88 11.8899 18.78 11.8199 18.68C11.7499 18.48 11.6699 18.47 11.5599 18.64C11.3999 18.78 11.3799 18.8 11.4999 18.69C11.5999 18.6 11.7099 18.52 11.8099 18.43C12.1299 18.13 12.4099 17.78 12.6599 17.42C13.1999 16.62 13.4499 15.73 13.5699 14.79H11.5699C11.5499 16.41 11.9299 17.92 12.6699 19.36C13.0499 20.1 14.3299 19.96 14.4999 19.12C14.7799 17.7 15.1699 16.31 15.6599 14.95C15.9899 14.03 14.6199 13.21 13.9899 13.98C13.3599 14.75 12.8799 15.6 12.6099 16.58C12.2699 17.84 14.1099 18.31 14.5399 17.11C14.9699 15.91 15.5199 14.78 16.7099 14.21C17.4999 13.83 17.2699 12.58 16.4699 12.38C15.3199 12.09 14.2199 12.53 13.6199 13.57L15.4499 14.34C15.5699 13.64 15.6199 12.98 15.5299 12.26C15.4099 11.29 14.2499 10.88 13.6699 11.76C13.1999 12.46 12.7299 13.17 12.2499 13.87L14.1099 14.37C14.1999 12.99 14.0099 11.63 13.5499 10.32L11.8799 11.29C12.7599 12.39 14.7499 13.2 16.1599 12.83C16.4899 12.74 16.6699 12.5 16.9699 12.37C17.2899 12.23 17.6399 12.3 17.9799 12.33C18.7399 12.39 19.4399 12.38 20.1199 11.97C20.9199 11.49 20.6499 10.45 19.8799 10.14C19.2999 9.90999 18.7099 9.80999 18.0899 9.75999C17.7699 9.72999 17.4499 9.72999 17.1299 9.70999L16.8099 9.68999C16.3499 9.55999 16.3199 9.63999 16.7099 9.93999L16.4499 10.91C16.1699 11.21 16.7599 11.15 16.9499 11.18C17.2399 11.22 17.5299 11.25 17.8199 11.27C18.4599 11.32 19.0999 11.31 19.7399 11.27C20.3799 11.23 20.8699 10.66 20.6999 9.99999C20.4199 8.86999 19.2399 8.74999 18.2599 8.63999C16.8599 8.48999 15.4599 8.56999 14.0899 8.20999L14.3299 10.04C15.2199 9.53999 16.5199 9.81999 17.4999 9.82999C18.6699 9.82999 19.8399 9.77999 20.9999 9.67999C21.9099 9.59999 22.4599 8.30999 21.4999 7.81999C19.0099 6.53999 15.7399 7.07999 13.0499 7.19999C11.4999 7.26999 9.94994 7.33999 8.40994 7.40999C7.27994 7.45999 5.78994 7.25999 5.11994 8.38999C4.75994 9.00999 5.20994 9.94999 5.97994 9.88999C7.87994 9.73999 9.76993 9.99999 11.5299 10.75C12.3099 11.08 13.1399 11.5 13.7699 12.08C14.3999 12.66 14.7699 13.31 15.5799 13.66C16.6899 14.14 18.7499 14.15 19.7999 13.45C20.4399 13.02 20.5399 12.32 20.5599 11.6C20.5799 10.73 20.8799 10.11 21.5599 9.54999L19.8899 8.57999C19.4399 9.64999 19.8299 10.94 19.3199 11.95L21.1499 12.72C21.3699 12.1 21.6699 10.48 22.5099 10.41L21.5099 9.40999C21.4699 10.07 20.8899 10.67 20.6499 11.26C20.4099 11.85 20.3499 12.44 20.5199 13.09C20.6699 13.66 21.4699 14.07 21.9899 13.69C22.6599 13.19 23.0899 12.59 23.5399 11.9C24.0499 11.12 24.8299 10.26 25.1499 9.36999C25.7699 7.62999 22.9099 7.15999 21.8099 6.74999C20.0699 6.08999 18.3899 5.54999 16.5299 5.37999C15.4899 5.28999 14.4499 5.28999 13.4099 5.30999C12.5999 5.32999 11.8299 5.25999 11.2099 5.83999C10.5399 6.46999 11.0899 7.49999 11.9199 7.54999C12.5999 7.58999 13.2799 7.63999 13.9599 7.67999V5.67999C12.7499 5.67999 11.5399 5.69999 10.3199 5.70999C9.48994 5.70999 8.33994 5.52999 7.65994 6.14999C7.11994 6.64999 7.04993 7.58999 7.59993 8.10999C8.29993 8.77999 9.63994 8.35999 10.4699 8.27999L10.1999 6.31999C8.78993 6.85999 7.37994 6.41999 5.92994 6.62999C4.47994 6.83999 4.61993 8.36999 4.48993 9.55999C4.39993 10.39 5.38993 10.7 5.98993 10.42C6.20993 10.32 6.34993 10.21 6.51993 10.04C6.90993 9.64999 6.88993 9.01999 6.51993 8.62999L5.55993 7.59999C4.67993 6.65999 3.26994 8.06999 4.14994 9.00999L4.08993 8.99999Z" fill="#D4145A"/>
<path d="M5.43986 12.62C5.69986 13.33 6.05985 13.96 6.48985 14.57C6.84985 15.09 7.22986 15.61 7.46986 16.19L7.31986 15.83C7.49986 16.27 7.65986 16.61 8.07986 16.88C8.45986 17.12 8.94986 17.18 9.36986 17.06C9.78986 16.94 10.1899 16.66 10.4999 16.36C10.9799 15.89 11.3299 15.22 11.4599 14.56C11.5299 14.19 11.5799 13.8 11.5799 13.42C11.5799 13.04 11.5799 12.64 11.4799 12.28C11.3199 11.74 10.9599 11.33 10.4999 11.02C10.3199 10.9 10.1199 10.81 9.93986 10.68L10.2399 10.91C9.92985 10.66 9.69986 10.47 9.31986 10.34C9.05986 10.25 8.77986 10.23 8.50986 10.23C8.16986 10.23 7.81986 10.23 7.47986 10.23C6.69986 10.23 5.93986 10.92 5.97986 11.73C6.01986 12.54 6.63986 13.23 7.47986 13.23C7.90986 13.23 8.36986 13.18 8.79986 13.23L8.39986 13.18C8.39986 13.18 8.48986 13.2 8.52986 13.22L8.16985 13.07C8.22985 13.1 8.27986 13.13 8.32986 13.17L8.02986 12.94C8.22986 13.1 8.43986 13.28 8.65986 13.41C8.77986 13.48 8.90986 13.55 9.02986 13.63L8.72986 13.4C8.77986 13.44 8.82985 13.49 8.87985 13.54L8.64986 13.24C8.64986 13.24 8.70986 13.32 8.72986 13.37L8.57986 13.01C8.59986 13.07 8.61985 13.13 8.62985 13.19L8.57986 12.79C8.61986 13.18 8.60985 13.58 8.55985 13.97L8.60986 13.57C8.56986 13.81 8.51985 14.04 8.41985 14.27L8.56986 13.91C8.49986 14.07 8.40985 14.22 8.30985 14.35L8.53986 14.05C8.45986 14.15 8.36986 14.25 8.25986 14.33L8.55985 14.1C8.46985 14.17 8.36985 14.23 8.26985 14.28L8.62985 14.13C8.62985 14.13 8.56986 14.16 8.52986 14.16H9.32986H9.27986C9.39986 14.2 9.51986 14.25 9.63986 14.3L9.59985 14.27L10.1399 14.81C10.1399 14.81 10.0999 14.75 10.0899 14.72L10.2399 15.08C9.96985 14.4 9.61986 13.81 9.20986 13.22C8.85986 12.73 8.50985 12.23 8.26985 11.68L8.41985 12.04C8.38985 11.96 8.35986 11.89 8.32986 11.81C8.19986 11.44 7.98986 11.12 7.63986 10.91C7.31986 10.72 6.83986 10.64 6.47986 10.76C6.11986 10.88 5.76986 11.1 5.57986 11.45C5.38986 11.8 5.28986 12.23 5.42986 12.61L5.43986 12.62Z" fill="#FBB03B"/>
<path d="M19.62 14.14C19.62 14.14 19.54 14.16 19.51 14.16L19.91 14.11C19.68 14.14 19.46 14.13 19.24 14.11C18.9 14.09 18.57 14.11 18.24 14.19C17.54 14.34 17.05 14.86 16.56 15.34C16.26 15.64 16.01 15.97 15.87 16.38C15.75 16.73 15.76 17.1 15.76 17.47C15.76 18 15.76 18.53 15.76 19.06C15.76 19.69 16.22 20.36 16.86 20.51C17.53 20.66 18.18 20.4 18.55 19.82C19 19.13 19.45 18.45 19.9 17.76C20.11 17.44 20.15 16.96 20.05 16.6C19.95 16.24 19.69 15.87 19.36 15.7C18.61 15.3 17.77 15.54 17.31 16.24C16.85 16.94 16.41 17.61 15.96 18.3L18.76 19.06C18.76 18.7 18.76 18.35 18.76 17.99C18.76 17.63 18.74 17.3 18.77 16.96L18.72 17.36C18.73 17.3 18.74 17.25 18.76 17.19L18.61 17.55C18.61 17.55 18.66 17.46 18.69 17.41L18.46 17.71C18.58 17.56 18.72 17.43 18.86 17.3C19 17.17 19.14 17.02 19.29 16.89L18.99 17.12C19.05 17.07 19.12 17.03 19.19 17L18.83 17.15C18.94 17.11 19.04 17.08 19.16 17.06L18.76 17.11C18.98 17.09 19.21 17.11 19.43 17.11C19.77 17.12 20.11 17.09 20.44 17.02C20.8 16.95 21.16 16.64 21.34 16.33C21.53 16.01 21.61 15.53 21.49 15.17C21.37 14.81 21.15 14.46 20.8 14.27C20.43 14.07 20.06 14.03 19.64 14.12L19.62 14.14Z" fill="#FBB03B"/>
<path d="M5.08003 7.24001C5.46003 6.88001 6.45003 6.94001 6.95003 6.80001C7.74003 6.57001 8.48003 6.17002 9.19003 5.76002C10.7 4.87002 12.02 4.74001 13.77 4.66001C15.52 4.58001 17.44 4.63001 19.2 5.18001C20.01 5.43001 20.76 5.82001 21.56 6.09001C21.95 6.22001 22.36 6.31001 22.76 6.43001C22.98 6.49001 23.49 6.84001 23.24 6.50001C23.88 7.37001 24.97 7.81001 25.98 7.22001C26.83 6.72001 27.35 5.36001 26.7 4.48001C25.38 2.71001 23.26 2.49001 21.33 1.71001C19.07 0.800015 16.58 0.580015 14.17 0.650015C11.76 0.720015 9.63003 0.880015 7.60003 2.06001C6.78003 2.54001 6.10003 2.93001 5.16003 3.11001C4.05003 3.32001 3.10003 3.63001 2.27003 4.42001C0.400025 6.19001 3.23003 9.02001 5.10003 7.25001L5.08003 7.24001Z" fill="#FBB03B"/>
<path d="M27.9499 4.68C27.8399 4.23 27.5599 3.84 27.1599 3.6C19.2299 -1.2 9.27991 -1.2 1.34991 3.6C0.529913 4.1 0.259916 5.17 0.759916 6L12.7599 25.66C13.2599 26.49 14.3299 26.76 15.1599 26.26C15.4099 26.11 15.6099 25.91 15.7599 25.66L27.7499 6C27.9899 5.61 28.0599 5.13 27.9499 4.68ZM5.87991 11.52C7.10991 10.21 9.16992 10.15 10.4699 11.38C11.7699 12.61 11.8399 14.67 10.6099 15.97C10.2099 16.4 9.69991 16.71 9.13991 16.87L5.87991 11.52ZM17.2599 20.31C15.8399 19.21 15.5899 17.16 16.6899 15.75C17.6199 14.56 19.2499 14.16 20.6199 14.8L17.2599 20.31ZM21.4099 13.51C20.7399 13.17 19.9999 12.99 19.2499 13C16.6299 13 14.4999 15.13 14.4999 17.75C14.4999 19.27 15.2299 20.71 16.4699 21.6L14.4699 24.88C14.3999 25 14.2499 25.04 14.1299 24.97C14.0899 24.95 14.0599 24.92 14.0399 24.88L9.94991 18.19C12.3999 17.25 13.6299 14.51 12.6899 12.06C11.7499 9.61 9.00991 8.38 6.55991 9.32C6.01991 9.53 5.51992 9.83 5.07992 10.22L3.99991 8.46C10.2599 4.53 18.2199 4.53 24.4899 8.46L21.4099 13.53V13.51ZM26.4699 5.22L25.2699 7.17C18.5299 2.94 9.95992 2.94 3.21992 7.17L2.02991 5.22C1.99991 5.17 1.98991 5.1 1.99991 5.04C2.01991 4.97 2.05992 4.92 2.11992 4.89C9.56992 0.38 18.9199 0.38 26.3699 4.89C26.4299 4.92 26.4699 4.98 26.4799 5.04C26.4999 5.1 26.4799 5.17 26.4499 5.22H26.4699Z" fill="black"/>
</svg>
