<svg width="30" height="23" viewBox="0 0 30 23" fill="none" xmlns="http://www.w3.org/2000/svg">
<path d="M19.2101 16.43C20.1901 17.08 21.1801 17.74 22.0001 18.59C22.8201 19.44 23.2301 20.9 24.5801 21.09C25.9301 21.28 27.1001 20.59 27.8601 19.57C28.6201 18.55 28.7101 17.34 28.3501 16.15C27.9201 14.71 27.9801 13.19 27.9301 11.7C27.9001 10.78 26.5201 10.25 26.0701 11.2C25.8301 11.71 25.5901 12.26 25.2101 12.69C24.8301 13.12 24.2901 13.39 23.7601 13.63C23.2001 13.89 22.6101 14.09 22.0101 14.26C21.3701 14.44 20.5801 14.5 20.2001 15.15C19.7401 15.93 20.2501 16.62 20.7401 17.21C21.1701 17.72 21.6201 18.21 22.0901 18.68C22.5601 19.15 23.0401 19.68 23.6201 19.98C24.3301 20.34 25.1701 20.27 25.7301 19.68C26.2401 19.14 26.5001 18.33 26.7101 17.62C26.9401 16.85 27.0601 16.05 27.1001 15.25C27.1401 14.59 26.4301 14.13 25.8301 14.29C25.2801 14.44 24.7301 14.58 24.1801 14.73C23.6301 14.88 23.0101 15.03 22.6601 15.55C22.3401 16.04 22.3501 16.68 22.6501 17.18C22.9301 17.64 23.4001 17.82 23.7301 18.21C24.1701 18.71 24.9801 18.52 25.3001 18.01C25.5601 17.6 25.5901 17.17 25.5101 16.7C25.4201 16.17 24.7701 15.87 24.2801 16C23.7201 16.15 23.4901 16.7 23.5801 17.23C23.5801 17.15 23.5801 17.07 23.5801 16.99L25.1501 16.79C24.9901 16.61 24.6901 16.3 24.4501 16.23C24.2701 16.18 24.4501 16.05 24.4201 16.36L24.2201 16.78C24.2201 16.78 24.2101 16.81 24.3201 16.76C24.6101 16.76 24.9801 16.58 25.2601 16.51L26.3601 16.22L25.0901 15.26C25.0501 15.94 24.9301 16.6 24.7201 17.25C24.6401 17.51 24.5501 17.76 24.4301 18.01C24.4101 18.06 24.2601 18.33 24.2501 18.32C24.2501 18.31 24.5701 18.16 24.5501 18.24C24.5501 18.24 23.9601 17.74 23.9301 17.71C23.6901 17.48 23.4501 17.25 23.2201 17.01C22.9701 16.75 22.7301 16.49 22.4901 16.22C22.3901 16.1 22.2901 15.99 22.1901 15.87C22.1201 15.79 22.0601 15.71 21.9901 15.63C21.9001 15.53 21.9101 15.63 22.0101 15.94L21.7501 16.38C21.6501 16.49 21.7401 16.41 21.8601 16.38C22.0301 16.34 22.2001 16.3 22.3701 16.25C22.6601 16.17 22.9501 16.08 23.2401 15.99C23.9101 15.76 24.5701 15.49 25.2001 15.17C26.4501 14.52 27.1701 13.49 27.7701 12.25L25.9101 11.75C25.9601 13.31 25.8901 14.95 26.3201 16.46C26.4901 17.07 26.6501 17.5 26.4601 18.03C26.3301 18.4 26.0101 18.76 25.6401 18.98C25.5001 19.06 25.2001 19.16 25.1001 19.17C25.0201 19.17 24.8801 19.2 24.8201 19.17C24.8201 19.17 24.9101 19.31 24.7701 19.1C24.4001 18.49 24.0201 17.91 23.5401 17.38C22.5801 16.34 21.3801 15.53 20.2001 14.75C19.7501 14.45 19.0901 14.66 18.8301 15.11C18.5401 15.6 18.7401 16.18 19.1901 16.48L19.2101 16.43Z" fill="#FBB03B"/>
<path d="M9.08004 10.45C7.71004 11.44 6.78004 12.65 5.77004 14C5.46004 14.41 5.14004 14.82 4.76004 15.19C4.55004 15.39 4.55004 15.41 4.31004 15.56C4.02004 15.69 3.96004 15.74 4.10004 15.7C3.58004 15.82 3.72004 15.86 4.54004 15.81L6.03004 16.96L5.91004 16.73L6.25004 17.99C6.21004 17.56 6.20004 17.89 6.33004 17.5C6.42004 17.21 6.56004 16.94 6.64004 16.64C6.87004 15.81 6.86004 14.94 6.89004 14.09C6.94004 12.73 7.26004 11.42 7.62004 10.12C7.94004 8.95002 8.50004 7.67002 8.72004 6.54002C8.90004 5.65002 8.77004 6.84002 8.52004 6.58002C8.52004 6.58002 9.01004 6.46002 9.04004 6.46002C9.73004 6.36002 10.45 6.39002 11.15 6.37002C12.65 6.33002 14.15 6.31002 15.66 6.30002C16.9 6.30002 18.25 6.16002 19.47 6.46002C20.02 6.59002 20.45 6.81002 20.92 7.14002C20.9 7.13002 21.42 7.48002 21.39 7.52002C21.3 7.63002 21.3 6.45002 21.27 7.41002C21.27 7.62002 21.31 8.66002 21.43 8.05002L21.58 7.95002C21.37 8.10002 21.18 8.25002 20.99 8.41002C20.7 8.68002 20.45 8.99002 20.28 9.35002C19.47 11.1 20.44 13.01 22.44 13.11H22.59C21.87 12.71 21.15 12.29 20.43 11.88L20.53 12.02L20.19 10.76L20.17 10.93L21.41 8.77002C21.9 8.65002 21.99 8.59002 21.66 8.60002C21.54 8.60002 21.43 8.59002 21.31 8.59002C20.92 8.59002 20.5 8.62002 20.13 8.71002C19.7 8.81002 19.3 9.00002 18.9 9.19002C19.18 9.06002 19.43 9.13002 18.99 9.10002C17.65 8.99002 16.25 9.10002 14.91 9.10002C12.25 9.08002 9.60004 9.10002 6.96004 9.39002L9.37004 12.55C9.46004 12 9.57004 11.46 9.74004 10.92C9.88004 10.47 10.2 10 10.31 9.56002C10.52 9.22002 10.31 9.35002 9.70004 9.96002L9.98004 9.89002C9.74004 9.89002 10.54 9.80002 10.51 9.80002C11.16 9.72002 11.83 9.72002 12.48 9.69002C15.16 9.60002 17.84 9.63002 20.52 9.65002C23.74 9.68002 23.74 4.68002 20.52 4.65002C17.3 4.62002 13.94 4.49002 10.68 4.78002C8.86004 4.94002 7.08004 5.24001 6.05004 6.92001C5.27004 8.20001 4.78004 9.74002 4.55004 11.21C4.32004 12.68 5.18004 14.58 6.96004 14.37C10.7 13.94 14.46 14.11 18.22 14.09C19.21 14.09 20.23 14.09 21.13 13.63C21.52 13.47 21.53 13.45 21.13 13.57C21.36 13.57 21.6 13.57 21.83 13.59C22.26 13.59 22.71 13.59 23.12 13.47C26.21 12.57 25.56 8.25002 22.44 8.09002L24.6 11.85C24.57 11.92 24.38 12.05 24.3 12.09C24.53 11.96 24.79 11.74 24.98 11.55C25.3 11.24 25.56 10.87 25.75 10.48C26.21 9.56002 26.33 8.53002 26.29 7.52002C26.25 6.51002 26.09 5.53002 25.53 4.67002C24.97 3.81002 24.05 3.14002 23.2 2.62002C21.44 1.55002 19.43 1.28002 17.41 1.27002C15.39 1.26002 13.39 1.30002 11.38 1.34002C9.56004 1.38002 7.48004 1.30002 5.91004 2.35002C4.18004 3.51002 3.69004 5.78002 3.15004 7.66002C2.61004 9.54002 2.07004 11.62 1.95004 13.68C1.90004 14.53 1.90004 15.19 1.61004 15.99C1.21004 17.08 1.13004 18.27 1.69004 19.33C3.10004 21.95 6.48004 20.35 8.10004 18.9C9.45004 17.69 10.17 15.79 11.63 14.73C12.72 13.94 13.26 12.55 12.53 11.31C11.9 10.23 10.21 9.62002 9.11004 10.41L9.08004 10.45Z" fill="#D4145A"/>
<path d="M20.9299 9.13H17.9299C17.5199 9.13 17.1799 8.79 17.1799 8.38C17.1799 7.97 17.5199 7.63 17.9299 7.63H20.9299C21.3399 7.63 21.6799 7.97 21.6799 8.38C21.6799 8.79 21.3399 9.13 20.9299 9.13ZM11.9299 7.63H10.6799V6.38C10.6799 5.97 10.3399 5.63 9.92992 5.63C9.51992 5.63 9.17992 5.97 9.17992 6.38V7.63H7.92992C7.51992 7.63 7.17992 7.97 7.17992 8.38C7.17992 8.79 7.51992 9.13 7.92992 9.13H9.17992V10.38C9.17992 10.79 9.51992 11.13 9.92992 11.13C10.3399 11.13 10.6799 10.79 10.6799 10.38V9.13H11.9299C12.3399 9.13 12.6799 8.79 12.6799 8.38C12.6799 7.97 12.3399 7.63 11.9299 7.63ZM28.9099 20.31C28.1099 21.45 26.8199 22.12 25.4299 22.12C24.3099 22.12 23.2299 21.67 22.4299 20.88L22.3999 20.85L17.3499 15.13H12.4999L7.45992 20.85L7.41992 20.88C6.62992 21.68 5.54992 22.13 4.41992 22.13C2.06992 22.13 0.169922 20.22 0.169922 17.88C0.169922 17.63 0.189923 17.39 0.229923 17.14L2.26992 6.61C2.87992 3.15 5.87992 0.630005 9.38992 0.630005H20.3999C23.8999 0.630005 26.8999 3.14001 27.5299 6.58001V6.6L29.5799 17.12C29.7799 18.24 29.5299 19.39 28.8799 20.31H28.9099ZM20.4299 13.63C23.6099 13.63 26.1799 11.06 26.1799 7.88C26.1799 4.7 23.6099 2.13 20.4299 2.13H9.41992C6.62992 2.13 4.24992 4.14 3.76992 6.88C3.76992 6.88 3.76992 6.88 3.76992 6.89L1.71992 17.41C1.45992 18.91 2.45992 20.33 3.95992 20.59C4.82992 20.74 5.72992 20.46 6.35992 19.84L11.6099 13.88C11.7499 13.72 11.9599 13.63 12.1699 13.63H20.4299ZM28.1399 17.4L26.9199 11.11C25.6899 13.57 23.1799 15.12 20.4299 15.13H19.3499L23.4999 19.84C24.5799 20.91 26.3199 20.89 27.3899 19.81C28.0099 19.18 28.2899 18.28 28.1399 17.41V17.4Z" fill="black"/>
</svg>
