<svg width="26" height="25" viewBox="0 0 26 25" fill="none" xmlns="http://www.w3.org/2000/svg">
<path d="M23.5402 2.57L22.8402 1.97C21.7802 1.07 20.5102 1.29 19.7002 2.37C20.0502 1.9 19.8402 2.25 19.7302 2.26C19.5302 2.29 19.3202 2.39 19.1202 2.44C18.6102 2.58 18.1102 2.73 17.6302 2.97C16.6502 3.45 15.8102 4.32 15.6002 5.42C15.3402 6.77 16.1702 7.84 17.5302 7.95C18.9702 8.07 20.4002 8.06 21.8402 7.94C22.9202 7.84 23.8402 7.09 23.8402 5.94C23.8402 4.86 22.9202 3.93 21.8402 3.94C20.2202 3.96 19.2002 5.01 18.0602 5.73C18.0102 5.76 17.7302 5.9 17.8002 5.88C17.8602 5.86 17.9902 5.86 17.7302 5.88C17.3502 5.89 16.9602 5.82 16.5802 5.78C15.6902 5.68 14.7902 5.58 13.9002 5.46C12.2402 5.24 10.6302 4.81 9.08021 4.17C7.37021 3.46 5.79022 2.32 3.85022 2.84C1.71022 3.42 2.09022 6.85 4.38022 6.77C5.41022 6.73 6.34021 7.53 7.17021 8.05C8.24021 8.72 9.28021 9.42 10.3002 10.16C11.3202 10.9 12.3102 11.85 13.6502 11.9C14.7502 11.94 15.7702 11.22 16.8502 11.44L15.4502 8.98C15.0202 11.17 16.2202 13.26 17.0002 15.25C17.6902 17.02 18.8602 19.04 18.6802 20.99L22.0902 19.58C20.9902 18.34 20.8502 16.4 19.9202 15.02C19.6502 14.62 19.2502 14.27 19.0102 13.86C18.9602 13.77 18.8602 13.34 18.8002 13.14C18.4502 11.96 17.8302 11.22 16.6902 10.76C15.4102 10.24 14.2202 11.53 14.1602 12.69C14.1502 12.93 14.1302 13.16 14.1202 13.4L17.8502 12.39C17.4302 11.56 17.1002 10.67 16.2402 10.2C15.3802 9.73 14.4202 9.93 13.6602 10.47C12.9802 10.95 12.5802 11.59 12.0202 12.17C11.6002 12.61 11.0602 12.84 10.5602 13.18C9.29021 14.03 8.20021 15.15 7.47021 16.49C7.09021 17.18 6.73021 17.95 6.69021 18.75C6.67021 19.19 6.76021 19.59 6.91021 20C7.00021 20.24 7.10021 20.48 7.23021 20.7C7.23021 20.64 7.23021 20.58 7.19021 20.53L7.46022 19.52L7.36021 19.71L10.8102 21.73C11.6902 19.94 11.3302 17.95 9.98021 16.48C8.73021 15.12 6.88022 14.69 5.13022 14.43L4.60022 18.36C5.85022 18.23 7.1702 18.19 8.4002 17.93C9.6302 17.67 10.3102 16.9 11.3102 16.32C12.3102 15.74 13.4202 15.2 14.0502 14.13C14.7502 12.95 14.7402 11.78 14.2202 10.55C13.9602 9.93 13.1302 9.56 12.4902 9.56C11.7202 9.56 11.2002 9.97 10.7602 10.55C10.1602 11.34 9.57021 12.13 8.97021 12.93C8.32021 13.79 8.83021 15.17 9.69021 15.67C10.7102 16.27 11.7702 15.82 12.4302 14.95C13.0302 14.16 13.6202 13.37 14.2202 12.57H10.7702C10.5302 12.25 10.5102 12.02 10.7202 11.9C10.6102 12.13 10.5702 12.19 10.6002 12.09C10.5002 12.12 10.1602 12.39 10.0802 12.44C9.40021 12.83 8.79021 13.19 8.16021 13.65C7.20021 14.36 5.74022 14.23 4.60022 14.36C3.61022 14.46 2.76021 15.04 2.64021 16.09C2.53021 16.98 3.08022 18.14 4.07022 18.28C4.94022 18.41 5.98022 18.48 6.74022 18.96C6.99022 19.12 7.15022 19.23 7.27022 19.51C7.35022 19.69 7.25022 19.91 7.35022 19.7C6.87022 20.67 7.09022 21.86 8.07022 22.44C8.97022 22.96 10.3102 22.69 10.8102 21.72C11.1202 21.11 11.2802 20.47 11.1202 19.79C11.0602 19.53 10.9202 19.09 10.7802 18.89C10.7002 18.78 10.6402 18.5 10.6602 18.85C10.6802 19.17 10.7002 18.87 10.7802 18.74C10.9002 18.55 11.0002 18.34 11.1202 18.15C11.3502 17.79 11.6102 17.47 11.9202 17.17C12.5502 16.55 13.3602 16.2 14.0602 15.67C14.5402 15.32 14.9002 14.93 15.2702 14.47C15.5002 14.18 15.7302 13.83 16.0502 13.66L15.0402 13.93L15.2202 13.91L14.2102 13.64L14.4002 13.76L13.6802 13.04C13.9502 13.47 14.1602 13.94 14.3802 14.39C15.3302 16.27 18.0102 15.23 18.1102 13.38C18.1202 13.14 18.1402 12.91 18.1502 12.67L15.6202 14.6L14.8402 13.88C14.8802 13.98 14.9102 14.08 14.9302 14.19C14.9502 14.33 15.0002 14.48 15.0402 14.62C15.1602 15.04 15.3102 15.47 15.5302 15.85C15.9702 16.59 16.5902 17.13 16.9502 17.93C17.6602 19.51 18.0702 21.07 19.2502 22.4C20.5002 23.81 22.5202 22.57 22.6602 20.99C22.8402 18.94 21.9402 17.04 21.2202 15.17C20.8602 14.23 20.4902 13.3 20.1302 12.36C19.9602 11.92 19.7802 11.48 19.6202 11.04C19.5302 10.81 19.2402 10.3 19.3002 10.03C19.5002 9.03 19.0302 7.8 17.9002 7.57C16.5902 7.31 15.1602 7.31 13.9102 7.86C13.5602 7.91 13.5502 7.94 13.8702 7.96C14.1902 8.04 14.1902 8 13.8602 7.84C13.6402 7.63 13.3402 7.45 13.1002 7.27C12.5702 6.88 12.0402 6.5 11.5002 6.12C9.45021 4.7 6.98021 2.66 4.36021 2.76L4.89021 6.69C5.23021 6.6 6.03022 7.17 6.35022 7.31C7.18022 7.69 8.02022 8.05 8.88022 8.36C10.6102 8.98 12.3902 9.27 14.2102 9.49C15.7402 9.68 17.5702 10.17 19.0702 9.64C19.8502 9.36 20.4502 8.89 21.0902 8.39C21.2802 8.25 21.3302 8.18 21.6002 8.02C21.7502 7.93 21.9102 7.93 21.8002 7.93V3.93C20.3602 4.06 18.9302 4.06 17.4902 3.94L19.4202 6.47C19.5402 5.87 19.2402 6.62 19.2402 6.61C19.2402 6.68 19.5102 6.48 19.3502 6.52C19.7302 6.44 20.1402 6.3 20.5202 6.18C21.6402 5.84 22.4202 5.31 23.1202 4.37L19.9802 4.77L20.6802 5.37C21.5002 6.07 22.7002 6.18 23.5102 5.37C24.2302 4.65 24.3402 3.24 23.5102 2.54L23.5402 2.57Z" fill="#D4145A"/>
<path d="M9.58012 12.76L12.4101 15.59C12.7801 15.96 13.4601 15.99 13.8201 15.59C14.1801 15.19 14.2201 14.57 13.8201 14.18L10.9901 11.35C10.6201 10.98 9.94012 10.95 9.58012 11.35C9.22012 11.75 9.18012 12.37 9.58012 12.76Z" fill="#FBB03B"/>
<path d="M4.69005 14.97C6.59005 16.92 8.48006 18.88 10.3801 20.83C10.7501 21.21 11.43 21.22 11.79 20.83C12.15 20.44 12.18 19.82 11.79 19.42C9.89004 17.47 8.00006 15.51 6.10006 13.56C5.73006 13.18 5.05005 13.17 4.69005 13.56C4.33005 13.95 4.30005 14.57 4.69005 14.97Z" fill="#FBB03B"/>
<path d="M20.37 10.07L24.13 6.52999L24.15 6.50999C25.61 5.04999 25.61 2.66999 24.15 1.20999C22.69 -0.25001 20.31 -0.25001 18.85 1.20999L18.83 1.22999L15.29 4.98999L4.75003 1.15999C4.48003 1.05999 4.17004 1.12999 3.96004 1.32999L0.960035 4.32999C0.670035 4.61999 0.660035 5.09999 0.960035 5.38999C1.00004 5.42999 1.04003 5.45999 1.08003 5.48999L9.32004 10.98L7.19003 13.11H4.50003C4.30003 13.11 4.11003 13.19 3.97003 13.33L0.97003 16.33C0.68003 16.62 0.68003 17.1 0.97003 17.39C1.04003 17.46 1.13003 17.52 1.22003 17.56L5.92003 19.44L7.80003 24.13C7.96003 24.53 8.39003 24.71 8.78003 24.55C8.88003 24.51 8.97002 24.45 9.04002 24.37L12.03 21.38C12.17 21.24 12.26 21.05 12.26 20.85V18.16L14.39 16.03L19.88 24.27C20.11 24.61 20.58 24.71 20.92 24.48C20.96 24.45 21 24.42 21.03 24.39L24.03 21.39C24.24 21.18 24.3 20.88 24.2 20.6L20.37 10.06V10.07ZM20.62 22.69L15.13 14.45C15.01 14.26 14.8 14.14 14.58 14.12H14.51C14.31 14.12 14.12 14.2 13.98 14.34L10.98 17.34C10.84 17.48 10.76 17.67 10.76 17.87V20.56L8.78003 22.54L7.20003 18.6C7.12003 18.41 6.97003 18.26 6.78003 18.18L2.84002 16.6L4.82004 14.62H7.51002C7.71002 14.62 7.90002 14.54 8.04002 14.4L11.04 11.4C11.33 11.11 11.33 10.63 11.04 10.34C11.01 10.31 10.97 10.27 10.93 10.25L2.69003 4.75999L4.71004 2.73999L15.27 6.57999C15.55 6.67999 15.87 6.60999 16.07 6.38999L19.95 2.27999C20.88 1.44999 22.3 1.52999 23.13 2.44999C23.9 3.30999 23.9 4.59999 23.13 5.45999L19.02 9.33999C18.8 9.54999 18.73 9.85999 18.83 10.14L22.67 20.69L20.65 22.7L20.62 22.69Z" fill="#3B3B3B"/>
</svg>
