<svg width="31" height="22" viewBox="0 0 31 22" fill="none" xmlns="http://www.w3.org/2000/svg">
<path d="M11.8598 7.44C11.8398 9.33 11.8599 11.22 11.8799 13.11C11.8999 14.47 13.0099 15.6 14.3799 15.61L20.7699 15.67L23.8398 15.7H25.3698C25.6598 15.72 25.9499 15.71 26.2399 15.72C26.8299 15.74 26.2799 15.78 26.0499 15.64C27.5099 16.52 29.1998 15.64 29.7198 14.15C30.4898 11.96 29.5998 9.37 28.6098 7.37C27.3898 4.92 24.0598 5.27 21.7598 5.21C20.6898 5.18 19.6199 5.18 18.5499 5.19C17.3199 5.2 15.8599 5.07 14.7399 5.65C13.3899 6.36 12.8799 7.94 13.1599 9.37C13.4199 10.72 14.4699 11.65 15.7099 12.11C16.8399 12.53 18.1798 12.41 19.3698 12.41C20.6498 12.41 21.9198 12.41 23.1998 12.41C24.4798 12.41 25.7598 11.26 25.6998 9.91C25.6398 8.56 24.5998 7.41 23.1998 7.41C21.2598 7.41 19.2798 7.29 17.3398 7.4C17.1498 7.39 17.2098 7.4 17.5098 7.43C17.4098 7.41 17.3198 7.39 17.2198 7.36C17.0398 7.3 17.0999 7.32 17.3799 7.42C17.5299 7.5 17.6499 7.6 17.7399 7.73C17.9399 7.97 18.0598 8.26 18.0598 8.57C18.0598 9.01 17.8799 9.4 17.5499 9.73L16.3298 10.25C16.4498 10.33 16.8498 10.23 17.0098 10.23C17.2698 10.23 17.5198 10.22 17.7798 10.21C18.2898 10.2 18.8099 10.19 19.3199 10.19C20.2999 10.19 21.2899 10.2 22.2699 10.23C22.7399 10.24 23.2098 10.26 23.6798 10.28C24.0998 10.3 24.7598 10.22 25.1498 10.36C24.8098 10.3 24.7699 10.31 25.0499 10.37L24.4198 10C24.3098 9.9 24.0499 9.31 24.2099 9.74C24.3699 10.17 24.5298 10.55 24.6698 10.96C24.7498 11.19 24.8199 11.41 24.8799 11.64C24.9099 11.75 25.0398 12.42 24.9698 11.9C24.9898 12.09 24.9699 12.28 24.9899 12.47C24.9899 12.66 24.9898 12.62 25.0098 12.37C24.9798 12.52 24.9299 12.67 24.8799 12.81L28.5499 11.32C27.3499 10.6 25.9298 10.72 24.5798 10.7L21.2598 10.67L14.3598 10.61L16.8598 13.11C16.8298 11.22 16.8198 9.33 16.8398 7.44C16.8498 6.13 15.6798 4.88 14.3398 4.94C12.9998 5 11.8498 6.04 11.8398 7.44H11.8598Z" fill="#D4145A"/>
<path d="M1.18985 7.59C1.28985 9.47 1.24985 11.34 1.07985 13.21C1.02985 13.79 1.38985 14.59 1.80985 14.98C2.27985 15.41 2.91985 15.76 3.57985 15.71C4.58985 15.64 5.59984 15.62 6.61984 15.62C7.55984 15.62 8.55985 15.56 9.48985 15.68L8.82985 15.59C8.91985 15.61 8.99985 15.63 9.08985 15.66L8.48985 15.41C8.56985 15.45 8.63986 15.48 8.70986 15.53L8.19985 15.14L8.25984 15.2L7.86984 14.69C7.86984 14.69 7.93986 14.78 7.95986 14.83C8.45986 15.77 9.76985 16.31 10.7798 15.98C11.7898 15.65 12.6098 14.7 12.6198 13.57C12.6198 11.55 12.6198 9.54 12.6198 7.52L12.5298 8.18V8.11C12.4598 8.31 12.3698 8.51 12.2898 8.71L12.3199 8.65L11.9298 9.16L11.9699 9.11L11.4599 9.5L11.5098 9.48H8.98985L9.02985 9.5L10.2898 4.84C9.51984 4.86 8.74985 4.87 7.97985 4.89C6.94985 4.91 5.70985 4.77 4.79985 5.35C3.88985 5.93 3.41985 6.8 3.38985 7.83C3.36985 8.34 3.50985 8.87 3.60985 9.37C3.75985 10.14 3.89985 10.91 4.04985 11.69C4.15985 12.28 4.69985 12.89 5.19985 13.18C5.73985 13.49 6.52985 13.63 7.12985 13.43C7.72985 13.23 8.31984 12.86 8.61984 12.28C8.94984 11.66 8.99984 11.05 8.86984 10.35C8.68984 9.38 8.48986 8.41 8.31986 7.43L8.40985 8.09C8.39985 8 8.38984 7.91 8.39984 7.82L8.30985 8.48C8.30985 8.42 8.32986 8.37 8.34986 8.31L8.09986 8.91L8.13985 8.84L7.74985 9.35L7.80985 9.29L7.29985 9.68L7.36984 9.63L6.76985 9.88C6.82985 9.85 6.87985 9.84 6.93985 9.83L6.27985 9.92C6.92985 9.86 7.59985 9.88 8.24985 9.87C8.89985 9.86 9.61985 9.84 10.2999 9.83C11.3599 9.81 12.4599 9.07 12.7099 7.99C12.9599 6.91 12.5598 5.7 11.5598 5.17C10.4998 4.61 9.24984 4.73 8.39984 5.6C7.81984 6.2 7.62985 6.95 7.62985 7.76C7.62985 8.4 7.62985 9.03 7.62985 9.67C7.62985 10.96 7.62985 12.25 7.62985 13.55L12.2898 12.29C11.3398 10.49 9.21985 10.63 7.48985 10.61C6.18985 10.59 4.88985 10.61 3.58985 10.69L6.08985 13.19C6.25985 11.32 6.28985 9.44 6.19985 7.57C6.16985 6.91 5.93985 6.28 5.46985 5.8C5.03985 5.37 4.31985 5.04 3.69985 5.07C2.39985 5.13 1.12985 6.17 1.19985 7.57L1.18985 7.59Z" fill="#FBB03B"/>
<path d="M25.5 4.12H2.25V0.869995C2.25 0.459995 1.91 0.119995 1.5 0.119995C1.09 0.119995 0.75 0.459995 0.75 0.869995V20.87C0.75 21.28 1.09 21.62 1.5 21.62C1.91 21.62 2.25 21.28 2.25 20.87V16.62H28.75V20.87C28.75 21.28 29.09 21.62 29.5 21.62C29.91 21.62 30.25 21.28 30.25 20.87V8.87C30.25 6.25 28.12 4.12 25.5 4.12ZM2.25 5.62H11.75V15.12H2.25V5.62ZM13.25 15.12V5.62H25.5C27.29 5.62 28.75 7.08 28.75 8.87V15.12H13.25Z" fill="black"/>
</svg>
