<svg xmlns="http://www.w3.org/2000/svg" width="18" height="18" viewBox="0 0 18 18" fill="none">
  <path d="M9 6.09091C7.39273 6.09091 6.09091 7.39273 6.09091 9C6.09091 10.6073 7.39273 11.9091 9 11.9091C10.6073 11.9091 11.9091 10.6073 11.9091 9C11.9091 7.39273 10.6073 6.09091 9 6.09091ZM15.5018 8.27273C15.1673 5.24 12.76 2.83273 9.72727 2.49818V1H8.27273V2.49818C5.24 2.83273 2.83273 5.24 2.49818 8.27273H1V9.72727H2.49818C2.83273 12.76 5.24 15.1673 8.27273 15.5018V17H9.72727V15.5018C12.76 15.1673 15.1673 12.76 15.5018 9.72727H17V8.27273H15.5018ZM9 14.0909C6.18545 14.0909 3.90909 11.8145 3.90909 9C3.90909 6.18545 6.18545 3.90909 9 3.90909C11.8145 3.90909 14.0909 6.18545 14.0909 9C14.0909 11.8145 11.8145 14.0909 9 14.0909Z" fill="#222222" stroke="white" stroke-width="0.5"/>
</svg>