<svg width="24" height="24" viewBox="0 0 24 24" fill="none" xmlns="http://www.w3.org/2000/svg">
<path d="M15.5302 18.9694C15.5999 19.039 15.6552 19.1218 15.6929 19.2128C15.7306 19.3039 15.75 19.4014 15.75 19.5C15.75 19.5985 15.7306 19.6961 15.6929 19.7872C15.6552 19.8782 15.5999 19.9609 15.5302 20.0306C15.4606 20.1003 15.3778 20.1556 15.2868 20.1933C15.1957 20.231 15.0982 20.2504 14.9996 20.2504C14.9011 20.2504 14.8035 20.231 14.7124 20.1933C14.6214 20.1556 14.5387 20.1003 14.469 20.0306L6.96899 12.5306C6.89926 12.461 6.84394 12.3782 6.80619 12.2872C6.76845 12.1961 6.74902 12.0986 6.74902 12C6.74902 11.9014 6.76845 11.8038 6.80619 11.7128C6.84394 11.6217 6.89926 11.539 6.96899 11.4694L14.469 3.96936C14.6097 3.82863 14.8006 3.74957 14.9996 3.74957C15.1986 3.74957 15.3895 3.82863 15.5302 3.96936C15.671 4.1101 15.75 4.30097 15.75 4.49999C15.75 4.69901 15.671 4.88988 15.5302 5.03061L8.55993 12L15.5302 18.9694Z" fill="black"/>
</svg>
