<svg width="24" height="24" viewBox="0 0 24 24" fill="none" xmlns="http://www.w3.org/2000/svg">
<path d="M15.5312 18.9694C15.6009 19.039 15.6562 19.1218 15.6939 19.2128C15.7316 19.3039 15.751 19.4014 15.751 19.5C15.751 19.5985 15.7316 19.6961 15.6939 19.7872C15.6562 19.8782 15.6009 19.9609 15.5312 20.0306C15.4615 20.1003 15.3788 20.1556 15.2878 20.1933C15.1967 20.231 15.0991 20.2504 15.0006 20.2504C14.902 20.2504 14.8045 20.231 14.7134 20.1933C14.6224 20.1556 14.5396 20.1003 14.47 20.0306L6.96996 12.5306C6.90023 12.461 6.84491 12.3782 6.80717 12.2872C6.76943 12.1961 6.75 12.0986 6.75 12C6.75 11.9014 6.76943 11.8038 6.80717 11.7128C6.84491 11.6217 6.90023 11.539 6.96996 11.4694L14.47 3.96936C14.6107 3.82863 14.8016 3.74957 15.0006 3.74957C15.1996 3.74957 15.3905 3.82863 15.5312 3.96936C15.6719 4.1101 15.751 4.30097 15.751 4.49999C15.751 4.69901 15.6719 4.88988 15.5312 5.03061L8.5609 12L15.5312 18.9694Z" fill="white"/>
</svg>
