<svg xmlns="http://www.w3.org/2000/svg" width="16" height="16" viewBox="0 0 16 16" fill="none">
  <path d="M15.75 7.5C15.749 6.63835 15.4063 5.81228 14.797 5.203C14.1877 4.59372 13.3617 4.25099 12.5 4.25H10.02C9.80503 4.23688 6.73253 4 3.80378 1.54375C3.62159 1.39079 3.39954 1.293 3.16371 1.26185C2.92788 1.2307 2.68805 1.26749 2.4724 1.3679C2.25675 1.46831 2.07423 1.62817 1.94627 1.8287C1.81831 2.02924 1.75023 2.26212 1.75002 2.5V12.5C1.74852 12.7382 1.81577 12.9717 1.94371 13.1726C2.07164 13.3735 2.25482 13.5332 2.47127 13.6325C2.6868 13.7342 2.92706 13.7718 3.16335 13.7406C3.39964 13.7095 3.62197 13.611 3.80378 13.4569C5.30286 12.1967 7.08635 11.3206 9.00003 10.9044V12.5419C8.99999 12.7476 9.05075 12.9502 9.14778 13.1316C9.24482 13.313 9.38513 13.4677 9.55628 13.5819C9.58402 13.6006 9.61305 13.6173 9.64315 13.6319L10.5457 14.0731C10.7125 14.173 10.9003 14.2326 11.0941 14.2471C11.288 14.2617 11.4826 14.2308 11.6625 14.1569C11.8423 14.0831 12.0025 13.9683 12.1302 13.8217C12.2579 13.6751 12.3496 13.5008 12.3982 13.3125L13.0913 10.6988C13.8381 10.5597 14.5128 10.1638 14.9984 9.57957C15.484 8.99536 15.7499 8.25967 15.75 7.5ZM3.25002 11.9769V3.025C5.51065 4.77938 7.76065 5.40625 9.00003 5.62875V9.375C7.76065 9.595 5.51065 10.2219 3.25002 11.9769ZM11.0244 12.6375L10.5 12.3813V10.75H11.525L11.0244 12.6375ZM12.5 9.25H10.5V5.75H12.5C12.9642 5.75 13.4093 5.93438 13.7375 6.26257C14.0657 6.59075 14.25 7.03587 14.25 7.5C14.25 7.96413 14.0657 8.40925 13.7375 8.73744C13.4093 9.06563 12.9642 9.25 12.5 9.25Z" fill="black"/>
</svg>