<svg xmlns="http://www.w3.org/2000/svg" width="16" height="16" viewBox="0 0 16 16" fill="none">
  <path d="M7.99997 2.25C6.76384 2.25 5.55547 2.61656 4.52766 3.30332C3.49985 3.99008 2.69877 4.96619 2.22573 6.10823C1.75268 7.25027 1.62891 8.50694 1.87006 9.71932C2.11122 10.9317 2.70648 12.0453 3.58056 12.9194C4.45463 13.7935 5.56828 14.3888 6.78066 14.6299C7.99304 14.8711 9.24971 14.7473 10.3917 14.2742C11.5338 13.8012 12.5099 13.0001 13.1967 11.9723C13.8834 10.9445 14.25 9.73614 14.25 8.5C14.2482 6.84296 13.5891 5.2543 12.4174 4.0826C11.2457 2.91089 9.65702 2.25182 7.99997 2.25ZM7.99997 13.25C7.06051 13.25 6.14215 12.9714 5.36101 12.4495C4.57988 11.9275 3.97106 11.1857 3.61155 10.3177C3.25203 9.4498 3.15796 8.49473 3.34124 7.57332C3.52452 6.65191 3.97692 5.80555 4.64122 5.14125C5.30552 4.47695 6.15188 4.02455 7.07329 3.84127C7.9947 3.65799 8.94977 3.75206 9.81772 4.11158C10.6857 4.47109 11.4275 5.07991 11.9495 5.86104C12.4714 6.64218 12.75 7.56054 12.75 8.5C12.7486 9.75937 12.2478 10.9668 11.3573 11.8573C10.4668 12.7478 9.25935 13.2487 7.99997 13.25ZM2.0306 4.53063C1.96083 4.60039 1.87801 4.65573 1.78686 4.69349C1.69571 4.73125 1.59801 4.75068 1.49935 4.75068C1.40069 4.75068 1.30299 4.73125 1.21184 4.69349C1.12069 4.65573 1.03786 4.60039 0.968098 4.53063C0.898333 4.46086 0.842993 4.37804 0.805236 4.28689C0.76748 4.19574 0.748047 4.09804 0.748047 3.99938C0.748047 3.90072 0.76748 3.80302 0.805236 3.71187C0.842993 3.62072 0.898333 3.53789 0.968098 3.46813L2.9681 1.46813C3.10899 1.32723 3.30009 1.24808 3.49935 1.24808C3.69861 1.24808 3.8897 1.32723 4.0306 1.46813C4.17149 1.60902 4.25065 1.80012 4.25065 1.99938C4.25065 2.19864 4.17149 2.38973 4.0306 2.53063L2.0306 4.53063ZM15.0306 4.53063C14.9609 4.60055 14.8781 4.65603 14.787 4.69388C14.6958 4.73173 14.5981 4.75122 14.4993 4.75122C14.4006 4.75122 14.3029 4.73173 14.2117 4.69388C14.1206 4.65603 14.0378 4.60055 13.9681 4.53063L11.9681 2.53063C11.8983 2.46086 11.843 2.37804 11.8052 2.28689C11.7675 2.19574 11.748 2.09804 11.748 1.99938C11.748 1.90072 11.7675 1.80302 11.8052 1.71187C11.843 1.62072 11.8983 1.53789 11.9681 1.46813C12.0379 1.39836 12.1207 1.34302 12.2118 1.30527C12.303 1.26751 12.4007 1.24808 12.4993 1.24808C12.598 1.24808 12.6957 1.26751 12.7869 1.30527C12.878 1.34302 12.9608 1.39836 13.0306 1.46813L15.0306 3.46813C15.1005 3.53781 15.156 3.6206 15.1938 3.71176C15.2317 3.80293 15.2512 3.90067 15.2512 3.99938C15.2512 4.09809 15.2317 4.19583 15.1938 4.28699C15.156 4.37816 15.1005 4.46095 15.0306 4.53063ZM11 7.75C11.1989 7.75 11.3896 7.82902 11.5303 7.96967C11.671 8.11032 11.75 8.30109 11.75 8.5C11.75 8.69892 11.671 8.88968 11.5303 9.03033C11.3896 9.17098 11.1989 9.25 11 9.25H7.99997C7.80106 9.25 7.61029 9.17098 7.46964 9.03033C7.32899 8.88968 7.24997 8.69892 7.24997 8.5V5.5C7.24997 5.30109 7.32899 5.11033 7.46964 4.96967C7.61029 4.82902 7.80106 4.75 7.99997 4.75C8.19888 4.75 8.38965 4.82902 8.5303 4.96967C8.67095 5.11033 8.74997 5.30109 8.74997 5.5V7.75H11Z" fill="black"/>
</svg>