<svg xmlns="http://www.w3.org/2000/svg" width="16" height="16" viewBox="0 0 16 16" fill="none">
  <path d="M13.5 2.75H2.50001C2.16849 2.75 1.85055 2.8817 1.61613 3.11612C1.38171 3.35054 1.25001 3.66848 1.25001 4V14C1.24901 14.238 1.31663 14.4713 1.44476 14.672C1.57289 14.8726 1.75612 15.032 1.97251 15.1313C2.13862 15.209 2.31972 15.2495 2.50314 15.25C2.79665 15.2492 3.08045 15.1448 3.30439 14.955L3.31189 14.9481L5.27939 13.25H13.5C13.8315 13.25 14.1495 13.1183 14.3839 12.8839C14.6183 12.6495 14.75 12.3315 14.75 12V4C14.75 3.66848 14.6183 3.35054 14.3839 3.11612C14.1495 2.8817 13.8315 2.75 13.5 2.75ZM13.25 11.75H5.00001C4.82 11.7497 4.64596 11.8145 4.51001 11.9325L2.75001 13.4519V4.25H13.25V11.75ZM5.25001 6.75C5.25001 6.55109 5.32903 6.36032 5.46968 6.21967C5.61033 6.07902 5.8011 6 6.00001 6H10C10.1989 6 10.3897 6.07902 10.5303 6.21967C10.671 6.36032 10.75 6.55109 10.75 6.75C10.75 6.94891 10.671 7.13968 10.5303 7.28033C10.3897 7.42098 10.1989 7.5 10 7.5H6.00001C5.8011 7.5 5.61033 7.42098 5.46968 7.28033C5.32903 7.13968 5.25001 6.94891 5.25001 6.75ZM5.25001 9.25C5.25001 9.05109 5.32903 8.86032 5.46968 8.71967C5.61033 8.57902 5.8011 8.5 6.00001 8.5H10C10.1989 8.5 10.3897 8.57902 10.5303 8.71967C10.671 8.86032 10.75 9.05109 10.75 9.25C10.75 9.44891 10.671 9.63968 10.5303 9.78033C10.3897 9.92098 10.1989 10 10 10H6.00001C5.8011 10 5.61033 9.92098 5.46968 9.78033C5.32903 9.63968 5.25001 9.44891 5.25001 9.25Z" fill="black"/>
</svg>