<svg xmlns="http://www.w3.org/2000/svg" width="48" height="48" viewBox="0 0 48 48" fill="none">
  <path d="M21.5 23.25V8.25C21.5 7.65326 21.7371 7.08097 22.159 6.65901C22.581 6.23705 23.1533 6 23.75 6C24.3467 6 24.919 6.23705 25.341 6.65901C25.7629 7.08097 26 7.65326 26 8.25V23.25C26 23.8467 25.7629 24.419 25.341 24.841C24.919 25.2629 24.3467 25.5 23.75 25.5C23.1533 25.5 22.581 25.2629 22.159 24.841C21.7371 24.419 21.5 23.8467 21.5 23.25ZM33.9781 7.875C33.4785 7.56737 32.8785 7.46707 32.306 7.59548C31.7335 7.72389 31.2338 8.07085 30.9134 8.5624C30.5931 9.05395 30.4774 9.65119 30.591 10.2268C30.7047 10.8024 31.0387 11.3109 31.5219 11.6437C35.6394 14.3194 38 18.5625 38 23.25C38 27.0293 36.4987 30.6539 33.8263 33.3263C31.1539 35.9987 27.5293 37.5 23.75 37.5C19.9707 37.5 16.3461 35.9987 13.6737 33.3263C11.0013 30.6539 9.5 27.0293 9.5 23.25C9.5 18.5625 11.8606 14.3194 15.9781 11.6344C16.4356 11.2915 16.7454 10.7874 16.8446 10.2244C16.9438 9.66145 16.825 9.08181 16.5123 8.60324C16.1996 8.12467 15.7165 7.78307 15.1611 7.64781C14.6057 7.51255 14.0196 7.59378 13.5219 7.875C8.105 11.3963 5 17.0044 5 23.25C5 28.2228 6.97544 32.9919 10.4917 36.5083C14.0081 40.0246 18.7772 42 23.75 42C28.7228 42 33.4919 40.0246 37.0083 36.5083C40.5246 32.9919 42.5 28.2228 42.5 23.25C42.5 17.0044 39.395 11.3963 33.9781 7.875Z" fill="#D4145A"/>
</svg>