<svg width="26" height="26" viewBox="0 0 26 26" fill="none" xmlns="http://www.w3.org/2000/svg">
<path d="M9.92901 18.339H8.25201V9.928L6.08101 11.631L5.14501 10.396L8.55101 7.731H9.92901V18.339ZM15.8455 7.536C18.0555 7.536 19.6805 8.862 19.6805 11.28V13.919C19.6805 17.13 17.8345 18.534 15.9755 18.534C14.1295 18.534 12.9075 17.741 12.1925 16.246L13.5575 15.518C14.0905 16.545 14.7535 17.052 15.8975 17.052C17.1455 17.052 18.1595 16.09 18.1595 13.854V13.425C17.6135 14.283 16.5735 14.725 15.5075 14.725C13.6615 14.725 11.9715 13.308 11.9715 11.111C11.9715 8.927 13.6615 7.536 15.8455 7.536ZM15.8325 13.269C17.0805 13.269 18.0295 12.45 18.0295 11.15C18.0295 9.837 17.0805 9.018 15.8325 9.018C14.5715 9.018 13.6095 9.837 13.6095 11.15C13.6095 12.45 14.5715 13.269 15.8325 13.269Z" fill="#222222"/>
<circle cx="13" cy="13" r="12.5" stroke="#444444"/>
</svg>
