<svg xmlns="http://www.w3.org/2000/svg" width="26" height="18" viewBox="0 0 26 18" fill="none">
  <path d="M24.3 6.3C24.5387 6.3 24.7676 6.20518 24.9364 6.0364C25.1052 5.86761 25.2 5.6387 25.2 5.4V1.8C25.2 1.32261 25.0104 0.864773 24.6728 0.527208C24.3352 0.189642 23.8774 0 23.4 0H1.8C1.32261 0 0.864773 0.189642 0.527208 0.527208C0.189642 0.864773 0 1.32261 0 1.8V5.4C0 5.6387 0.0948211 5.86761 0.263604 6.0364C0.432387 6.20518 0.661305 6.3 0.9 6.3C1.61608 6.3 2.30284 6.58446 2.80919 7.09081C3.31554 7.59716 3.6 8.28392 3.6 9C3.6 9.71608 3.31554 10.4028 2.80919 10.9092C2.30284 11.4155 1.61608 11.7 0.9 11.7C0.661305 11.7 0.432387 11.7948 0.263604 11.9636C0.0948211 12.1324 0 12.3613 0 12.6V16.2C0 16.6774 0.189642 17.1352 0.527208 17.4728C0.864773 17.8104 1.32261 18 1.8 18H23.4C23.8774 18 24.3352 17.8104 24.6728 17.4728C25.0104 17.1352 25.2 16.6774 25.2 16.2V12.6C25.2 12.3613 25.1052 12.1324 24.9364 11.9636C24.7676 11.7948 24.5387 11.7 24.3 11.7C23.5839 11.7 22.8972 11.4155 22.3908 10.9092C21.8845 10.4028 21.6 9.71608 21.6 9C21.6 8.28392 21.8845 7.59716 22.3908 7.09081C22.8972 6.58446 23.5839 6.3 24.3 6.3ZM1.8 13.41C2.81726 13.2034 3.73183 12.6515 4.38874 11.8478C5.04565 11.0441 5.40451 10.038 5.40451 9C5.40451 7.96198 5.04565 6.95588 4.38874 6.15217C3.73183 5.34846 2.81726 4.79656 1.8 4.59V1.8H8.1V16.2H1.8V13.41Z" fill="#444444"/>
</svg>