<svg xmlns="http://www.w3.org/2000/svg" width="23" height="20" viewBox="0 0 23 20" fill="none">
  <path d="M1.958 7.406C1.80712 7.22037 1.69977 7.00327 1.64388 6.77068C1.58798 6.53809 1.58494 6.29592 1.635 6.062C2.378 2.55 6.4 0 11.2 0C16 0 20.022 2.55 20.765 6.062C20.8156 6.29609 20.813 6.53855 20.7574 6.77151C20.7018 7.00446 20.5946 7.22195 20.4437 7.40795C20.2928 7.59395 20.1021 7.74371 19.8857 7.84618C19.6692 7.94865 19.4325 8.00121 19.193 8H3.207C2.96764 8.00072 2.73117 7.94773 2.515 7.84493C2.29884 7.74212 2.1085 7.59213 1.958 7.406ZM21.326 12.848L17.213 14.348L13.5 12.857C13.3093 12.7808 13.0967 12.7808 12.906 12.857L9.206 14.338L5.5 12.857C5.31755 12.7841 5.11466 12.7809 4.93 12.848L0.53 14.448C0.344036 14.5299 0.196186 14.6794 0.116459 14.8663C0.0367312 15.0532 0.0311012 15.2634 0.100711 15.4543C0.170321 15.6452 0.309954 15.8024 0.49127 15.8941C0.672586 15.9858 0.881998 16.0051 1.077 15.948L2.4 15.469V16C2.4 17.0609 2.82143 18.0783 3.57157 18.8284C4.32172 19.5786 5.33913 20 6.4 20H16C17.0609 20 18.0783 19.5786 18.8284 18.8284C19.5786 18.0783 20 17.0609 20 16V15.033L21.873 14.352C21.978 14.3213 22.0756 14.2693 22.1598 14.1993C22.2439 14.1294 22.3128 14.0429 22.3622 13.9452C22.4116 13.8476 22.4404 13.7408 22.4469 13.6316C22.4534 13.5223 22.4374 13.4129 22.3999 13.3101C22.3624 13.2073 22.3042 13.1133 22.2289 13.0339C22.1536 12.9544 22.0629 12.8913 21.9622 12.8484C21.8616 12.8054 21.7532 12.7836 21.6437 12.7842C21.5343 12.7848 21.4262 12.8079 21.326 12.852V12.848ZM0.8 11.2H21.6C21.8122 11.2 22.0157 11.1157 22.1657 10.9657C22.3157 10.8157 22.4 10.6122 22.4 10.4C22.4 10.1878 22.3157 9.98434 22.1657 9.83432C22.0157 9.68429 21.8122 9.6 21.6 9.6H0.8C0.587827 9.6 0.384344 9.68429 0.234315 9.83432C0.0842854 9.98434 0 10.1878 0 10.4C0 10.6122 0.0842854 10.8157 0.234315 10.9657C0.384344 11.1157 0.587827 11.2 0.8 11.2Z" fill="#222222"/>
</svg>