<svg xmlns="http://www.w3.org/2000/svg" width="26" height="26" viewBox="0 0 26 26" fill="none">
  <path d="M20.3929 11.2C20.5539 11.2 20.7083 11.1368 20.8222 11.0243C20.936 10.9117 21 10.7591 21 10.6V8.2C21 7.88174 20.8721 7.57652 20.6443 7.35147C20.4166 7.12643 20.1078 7 19.7857 7H5.21429C4.89224 7 4.58338 7.12643 4.35566 7.35147C4.12793 7.57652 4 7.88174 4 8.2V10.6C4 10.7591 4.06397 10.9117 4.17783 11.0243C4.29169 11.1368 4.44612 11.2 4.60714 11.2C5.09022 11.2 5.5535 11.3896 5.89509 11.7272C6.23667 12.0648 6.42857 12.5226 6.42857 13C6.42857 13.4774 6.23667 13.9352 5.89509 14.2728C5.5535 14.6104 5.09022 14.8 4.60714 14.8C4.44612 14.8 4.29169 14.8632 4.17783 14.9757C4.06397 15.0883 4 15.2409 4 15.4V17.8C4 18.1183 4.12793 18.4235 4.35566 18.6485C4.58338 18.8736 4.89224 19 5.21429 19H19.7857C20.1078 19 20.4166 18.8736 20.6443 18.6485C20.8721 18.4235 21 18.1183 21 17.8V15.4C21 15.2409 20.936 15.0883 20.8222 14.9757C20.7083 14.8632 20.5539 14.8 20.3929 14.8C19.9098 14.8 19.4465 14.6104 19.1049 14.2728C18.7633 13.9352 18.5714 13.4774 18.5714 13C18.5714 12.5226 18.7633 12.0648 19.1049 11.7272C19.4465 11.3896 19.9098 11.2 20.3929 11.2ZM5.21429 15.94C5.90053 15.8023 6.5175 15.4344 6.96066 14.8986C7.40381 14.3627 7.6459 13.692 7.6459 13C7.6459 12.308 7.40381 11.6373 6.96066 11.1014C6.5175 10.5656 5.90053 10.1977 5.21429 10.06V8.2H9.46429V17.8H5.21429V15.94Z" fill="#656565"/>
  <path d="M3 6L22 21.2" stroke="#444444" stroke-linecap="round" stroke-linejoin="round"/>
  <circle cx="13" cy="13" r="12.5" stroke="#444444"/>
</svg>