<svg xmlns="http://www.w3.org/2000/svg" width="26" height="26" viewBox="0 0 26 26" fill="none">
  <path d="M5.57001 10.9248C5.44902 10.7763 5.36295 10.6026 5.31813 10.4165C5.27331 10.2305 5.27088 10.0367 5.31101 9.8496C5.90678 7.04 9.13179 5 12.9806 5C16.8295 5 20.0545 7.04 20.6503 9.8496C20.6908 10.0369 20.6887 10.2308 20.6442 10.4172C20.5996 10.6036 20.5136 10.7776 20.3926 10.9264C20.2717 11.0752 20.1188 11.195 19.9452 11.2769C19.7716 11.3589 19.5818 11.401 19.3898 11.4H6.57151C6.37958 11.4006 6.18996 11.3582 6.01664 11.2759C5.84331 11.1937 5.69068 11.0737 5.57001 10.9248ZM21.1001 15.2784L17.8021 16.4784L14.8249 15.2856C14.672 15.2246 14.5015 15.2246 14.3486 15.2856L11.3818 16.4704L8.41013 15.2856C8.26384 15.2273 8.10115 15.2247 7.95308 15.2784L4.42498 16.5584C4.27586 16.6239 4.15731 16.7435 4.09338 16.893C4.02945 17.0425 4.02494 17.2107 4.08075 17.3634C4.13657 17.5161 4.24853 17.6419 4.39392 17.7153C4.53931 17.7886 4.70722 17.8041 4.86358 17.7584L5.92442 17.3752V17.8C5.92442 18.6487 6.26234 19.4626 6.86384 20.0627C7.46534 20.6629 8.28115 21 9.13179 21H16.8295C17.6801 21 18.4959 20.6629 19.0974 20.0627C19.6989 19.4626 20.0369 18.6487 20.0369 17.8V17.0264L21.5387 16.4816C21.6229 16.457 21.7012 16.4154 21.7687 16.3595C21.8361 16.3035 21.8914 16.2343 21.931 16.1562C21.9706 16.0781 21.9937 15.9927 21.9989 15.9053C22.0041 15.8179 21.9912 15.7303 21.9612 15.6481C21.9311 15.5659 21.8845 15.4906 21.8241 15.4271C21.7637 15.3636 21.6909 15.313 21.6102 15.2787C21.5295 15.2443 21.4426 15.2269 21.3549 15.2274C21.2671 15.2279 21.1804 15.2463 21.1001 15.2816V15.2784ZM4.64147 13.96H21.3198C21.4899 13.96 21.6531 13.8926 21.7734 13.7725C21.8937 13.6525 21.9613 13.4897 21.9613 13.32C21.9613 13.1503 21.8937 12.9875 21.7734 12.8675C21.6531 12.7474 21.4899 12.68 21.3198 12.68H4.64147C4.47134 12.68 4.30818 12.7474 4.18788 12.8675C4.06758 12.9875 4 13.1503 4 13.32C4 13.4897 4.06758 13.6525 4.18788 13.7725C4.30818 13.8926 4.47134 13.96 4.64147 13.96Z" fill="#656565"/>
  <path d="M3 6L22 21.2" stroke="#444444" stroke-linecap="round" stroke-linejoin="round"/>
  <circle cx="13" cy="13" r="12.5" stroke="#444444"/>
</svg>