<svg xmlns="http://www.w3.org/2000/svg" width="26" height="26" viewBox="0 0 26 26" fill="none">
  <path d="M22.3333 11.2609H21.4333L19.1183 5.82609C19.0136 5.5802 18.8427 5.37129 18.6265 5.22466C18.4102 5.07804 18.1579 5 17.9 5H8.1C7.84212 5 7.58977 5.07804 7.37353 5.22466C7.15729 5.37129 6.98643 5.5802 6.88167 5.82609L4.56667 11.2609H3.66667C3.48986 11.2609 3.32029 11.3342 3.19526 11.4646C3.07024 11.5951 3 11.772 3 11.9565C3 12.141 3.07024 12.318 3.19526 12.4484C3.32029 12.5789 3.48986 12.6522 3.66667 12.6522H4.33333V19.6087C4.33333 19.9777 4.47381 20.3316 4.72386 20.5925C4.97391 20.8534 5.31304 21 5.66667 21H7.66667C8.02029 21 8.35943 20.8534 8.60948 20.5925C8.85952 20.3316 9 19.9777 9 19.6087V18.913H17V19.6087C17 19.9777 17.1405 20.3316 17.3905 20.5925C17.6406 20.8534 17.9797 21 18.3333 21H20.3333C20.687 21 21.0261 20.8534 21.2761 20.5925C21.5262 20.3316 21.6667 19.9777 21.6667 19.6087V12.6522H22.3333C22.5101 12.6522 22.6797 12.5789 22.8047 12.4484C22.9298 12.318 23 12.141 23 11.9565C23 11.772 22.9298 11.5951 22.8047 11.4646C22.6797 11.3342 22.5101 11.2609 22.3333 11.2609ZM9 15.4348H7C6.82319 15.4348 6.65362 15.3615 6.5286 15.231C6.40357 15.1006 6.33333 14.9236 6.33333 14.7391C6.33333 14.5546 6.40357 14.3777 6.5286 14.2472C6.65362 14.1168 6.82319 14.0435 7 14.0435H9C9.17681 14.0435 9.34638 14.1168 9.4714 14.2472C9.59643 14.3777 9.66667 14.5546 9.66667 14.7391C9.66667 14.9236 9.59643 15.1006 9.4714 15.231C9.34638 15.3615 9.17681 15.4348 9 15.4348ZM19 15.4348H17C16.8232 15.4348 16.6536 15.3615 16.5286 15.231C16.4036 15.1006 16.3333 14.9236 16.3333 14.7391C16.3333 14.5546 16.4036 14.3777 16.5286 14.2472C16.6536 14.1168 16.8232 14.0435 17 14.0435H19C19.1768 14.0435 19.3464 14.1168 19.4714 14.2472C19.5964 14.3777 19.6667 14.5546 19.6667 14.7391C19.6667 14.9236 19.5964 15.1006 19.4714 15.231C19.3464 15.3615 19.1768 15.4348 19 15.4348ZM6.02583 11.2609L8.1 6.3913H17.9L19.9742 11.2609H6.02583Z" fill="#444444" fill-opacity="0.81"/>
  <path d="M3 6L22 21.2" stroke="#444444" stroke-linecap="round" stroke-linejoin="round"/>
  <circle cx="13" cy="13" r="12.5" stroke="#444444"/>
</svg>