<svg xmlns="http://www.w3.org/2000/svg" width="26" height="26" viewBox="0 0 26 26" fill="none">
  <path d="M21.9753 13.0823L20.656 6.04436C20.6237 5.8728 20.5566 5.70963 20.4587 5.56486C20.3607 5.4201 20.2341 5.29681 20.0865 5.20257C19.9389 5.10834 19.7735 5.04514 19.6005 5.01689C19.4275 4.98863 19.2505 4.9959 19.0804 5.03825L19.0555 5.04545L14.8357 6.28429H11.164L6.94421 5.04945L6.9193 5.04225C6.74921 4.9999 6.57221 4.99263 6.39919 5.02088C6.22617 5.04914 6.06079 5.11233 5.91321 5.20657C5.76564 5.30081 5.63898 5.4241 5.54105 5.56886C5.44311 5.71363 5.37596 5.8768 5.34373 6.04836L4.02445 13.0823C3.96804 13.364 4.00991 13.6564 4.14316 13.9112C4.2764 14.166 4.49303 14.3679 4.7572 14.4835C4.92639 14.5607 5.1102 14.6011 5.29632 14.6019C5.5191 14.6018 5.73775 14.5421 5.92944 14.4291V17.8009C5.92944 18.6494 6.26804 19.4631 6.87075 20.063C7.47346 20.663 8.29091 21 9.14327 21H16.8564C17.7088 21 18.5262 20.663 19.129 20.063C19.7317 19.4631 20.0703 18.6494 20.0703 17.8009V14.4299C20.2617 14.5427 20.4801 14.6023 20.7026 14.6027C20.8889 14.6021 21.073 14.562 21.2425 14.4851C21.507 14.3695 21.7238 14.1673 21.8571 13.9122C21.9904 13.6571 22.0321 13.3642 21.9753 13.0823ZM16.8564 19.7204H13.6426V18.7055L14.7401 17.6138C14.8607 17.4937 14.9285 17.3309 14.9285 17.1611C14.9285 16.9913 14.8607 16.8285 14.7401 16.7085C14.6195 16.5884 14.4559 16.5209 14.2854 16.5209C14.1148 16.5209 13.9512 16.5884 13.8306 16.7085L12.9999 17.5362L12.1691 16.7085C12.0485 16.5884 11.8849 16.5209 11.7143 16.5209C11.5438 16.5209 11.3802 16.5884 11.2596 16.7085C11.139 16.8285 11.0712 16.9913 11.0712 17.1611C11.0712 17.3309 11.139 17.4937 11.2596 17.6138L12.3571 18.7055V19.7204H9.14327C8.63185 19.7204 8.14138 19.5181 7.77976 19.1582C7.41813 18.7982 7.21497 18.31 7.21497 17.8009V12.9312L11.3873 7.56391H14.6124L18.7847 12.9312V17.8009C18.7847 18.31 18.5816 18.7982 18.2199 19.1582C17.8583 19.5181 17.3679 19.7204 16.8564 19.7204ZM11.0716 14.282C11.0716 14.4718 11.015 14.6573 10.9091 14.8151C10.8031 14.973 10.6525 15.096 10.4764 15.1686C10.3002 15.2413 10.1063 15.2603 9.91932 15.2232C9.73229 15.1862 9.5605 15.0948 9.42566 14.9606C9.29082 14.8264 9.19899 14.6554 9.16179 14.4692C9.12459 14.283 9.14368 14.0901 9.21666 13.9147C9.28963 13.7393 9.41321 13.5894 9.57176 13.484C9.73031 13.3785 9.91672 13.3222 10.1074 13.3222C10.3631 13.3222 10.6084 13.4234 10.7892 13.6033C10.97 13.7833 11.0716 14.0274 11.0716 14.282ZM16.8564 14.282C16.8564 14.4718 16.7999 14.6573 16.6939 14.8151C16.588 14.973 16.4374 15.096 16.2613 15.1686C16.0851 15.2413 15.8912 15.2603 15.7042 15.2232C15.5172 15.1862 15.3454 15.0948 15.2105 14.9606C15.0757 14.8264 14.9839 14.6554 14.9467 14.4692C14.9095 14.283 14.9286 14.0901 15.0015 13.9147C15.0745 13.7393 15.1981 13.5894 15.3566 13.484C15.5152 13.3785 15.7016 13.3222 15.8923 13.3222C16.148 13.3222 16.3932 13.4234 16.574 13.6033C16.7549 13.7833 16.8564 14.0274 16.8564 14.282Z" fill="#656565"/>
  <path d="M3 6L22 21.2" stroke="#444444" stroke-linecap="round" stroke-linejoin="round"/>
  <circle cx="13" cy="13" r="12.5" stroke="#444444"/>
</svg>