<svg xmlns="http://www.w3.org/2000/svg" width="22" height="20" viewBox="0 0 22 20" fill="none">
  <path d="M21.6507 5.00369V16.6617C21.6505 16.8242 21.6348 16.9863 21.6038 17.1458C21.5904 17.2225 21.5557 17.2939 21.5037 17.3519C21.4517 17.4099 21.3844 17.4521 21.3096 17.4738C21.2348 17.4955 21.1554 17.4957 21.0805 17.4746C21.0055 17.4534 20.938 17.4116 20.8856 17.3539L6.45356 1.47297C6.39106 1.40428 6.35332 1.31667 6.34635 1.22406C6.33937 1.13145 6.36355 1.03917 6.41505 0.961891L6.80434 0.377948C6.88016 0.264316 6.98276 0.171079 7.10311 0.106457C7.22346 0.0418351 7.35786 0.00781259 7.49446 0.00738864H14.1562C14.2933 0.00729957 14.4284 0.0410775 14.5493 0.105722C14.6702 0.170367 14.7733 0.263877 14.8494 0.377948L16.2671 2.50554H19.1525C19.8151 2.50554 20.4505 2.76874 20.919 3.23723C21.3875 3.70573 21.6507 4.34114 21.6507 5.00369ZM19.7687 18.5999C19.8438 18.6805 19.9021 18.7753 19.9403 18.8787C19.9785 18.982 19.9958 19.0919 19.9912 19.202C19.9866 19.3121 19.9602 19.4202 19.9135 19.5201C19.8668 19.6199 19.8008 19.7094 19.7193 19.7835C19.6377 19.8576 19.5423 19.9148 19.4385 19.9518C19.3346 19.9887 19.2245 20.0047 19.1145 19.9988C19.0045 19.9929 18.8967 19.9652 18.7974 19.9173C18.6982 19.8694 18.6094 19.8023 18.5363 19.7199L18.0273 19.1599H2.49815C1.8356 19.1599 1.20019 18.8967 0.731692 18.4282C0.263198 17.9597 0 17.3243 0 16.6617V5.00369C0 4.34114 0.263198 3.70573 0.731692 3.23723C1.20019 2.76874 1.8356 2.50554 2.49815 2.50554H2.88641L1.88194 1.40011C1.80686 1.31945 1.74853 1.2247 1.71034 1.12133C1.67214 1.01797 1.65485 0.908055 1.65945 0.797956C1.66405 0.687858 1.69045 0.579768 1.73713 0.47995C1.78382 0.380133 1.84985 0.290573 1.9314 0.216462C2.01294 0.142351 2.10839 0.0851632 2.21221 0.0482123C2.31602 0.0112614 2.42614 -0.00471719 2.53617 0.00120248C2.64621 0.00712215 2.75397 0.0348225 2.85322 0.0826979C2.95247 0.130573 3.04124 0.197671 3.11436 0.280104L19.7687 18.5999ZM12.9071 13.5307L7.92331 8.04728C7.35766 8.74287 7.06015 9.61822 7.08479 10.5144C7.10943 11.4107 7.45458 12.2683 8.05759 12.9318C8.66061 13.5953 9.48151 14.0205 10.3713 14.1304C11.2611 14.2403 12.1608 14.0275 12.9071 13.5307Z" fill="#444444"/>
</svg>