<svg xmlns="http://www.w3.org/2000/svg" width="27" height="20" viewBox="0 0 27 20" fill="none">
  <path d="M25.2174 7.82609H24.0435L21.0239 1.03261C20.8873 0.725247 20.6644 0.464108 20.3824 0.280831C20.1003 0.0975539 19.7712 4.0263e-06 19.4348 0H6.65217C6.3158 4.0263e-06 5.98665 0.0975539 5.7046 0.280831C5.42255 0.464108 5.19969 0.725247 5.06304 1.03261L2.04348 7.82609H0.869565C0.638942 7.82609 0.417765 7.9177 0.25469 8.08078C0.0916146 8.24385 0 8.46503 0 8.69565C0 8.92628 0.0916146 9.14745 0.25469 9.31053C0.417765 9.4736 0.638942 9.56522 0.869565 9.56522H1.73913V18.2609C1.73913 18.7221 1.92236 19.1645 2.24851 19.4906C2.57466 19.8168 3.01701 20 3.47826 20H6.08696C6.5482 20 6.99056 19.8168 7.31671 19.4906C7.64286 19.1645 7.82609 18.7221 7.82609 18.2609V17.3913H18.2609V18.2609C18.2609 18.7221 18.4441 19.1645 18.7702 19.4906C19.0964 19.8168 19.5388 20 20 20H22.6087C23.0699 20 23.5123 19.8168 23.8384 19.4906C24.1646 19.1645 24.3478 18.7221 24.3478 18.2609V9.56522H25.2174C25.448 9.56522 25.6692 9.4736 25.8323 9.31053C25.9953 9.14745 26.087 8.92628 26.087 8.69565C26.087 8.46503 25.9953 8.24385 25.8323 8.08078C25.6692 7.9177 25.448 7.82609 25.2174 7.82609ZM7.82609 13.0435H5.21739C4.98677 13.0435 4.76559 12.9519 4.60252 12.7888C4.43944 12.6257 4.34783 12.4045 4.34783 12.1739C4.34783 11.9433 4.43944 11.7221 4.60252 11.559C4.76559 11.396 4.98677 11.3043 5.21739 11.3043H7.82609C8.05671 11.3043 8.27789 11.396 8.44096 11.559C8.60404 11.7221 8.69565 11.9433 8.69565 12.1739C8.69565 12.4045 8.60404 12.6257 8.44096 12.7888C8.27789 12.9519 8.05671 13.0435 7.82609 13.0435ZM20.8696 13.0435H18.2609C18.0302 13.0435 17.8091 12.9519 17.646 12.7888C17.4829 12.6257 17.3913 12.4045 17.3913 12.1739C17.3913 11.9433 17.4829 11.7221 17.646 11.559C17.8091 11.396 18.0302 11.3043 18.2609 11.3043H20.8696C21.1002 11.3043 21.3214 11.396 21.4844 11.559C21.6475 11.7221 21.7391 11.9433 21.7391 12.1739C21.7391 12.4045 21.6475 12.6257 21.4844 12.7888C21.3214 12.9519 21.1002 13.0435 20.8696 13.0435ZM3.94674 7.82609L6.65217 1.73913H19.4348L22.1402 7.82609H3.94674Z" fill="#444444"/>
</svg>