<svg xmlns="http://www.w3.org/2000/svg" width="23" height="20" viewBox="0 0 23 20" fill="none">
  <path d="M22.3659 10.1029L20.7244 1.30545C20.6843 1.09101 20.6007 0.887036 20.4789 0.706081C20.357 0.525127 20.1994 0.371012 20.0158 0.253216C19.8322 0.135419 19.6264 0.0564302 19.4111 0.0211066C19.1958 -0.014217 18.9756 -0.00512867 18.764 0.0478128L18.733 0.0568102L13.4825 1.60536H8.91384L3.66337 0.0618086L3.63237 0.0528112C3.42074 -0.00013021 3.2005 -0.00921855 2.98522 0.0261051C2.76994 0.0614287 2.56416 0.140418 2.38054 0.258214C2.19691 0.376011 2.03933 0.530125 1.91747 0.71108C1.79561 0.892034 1.71206 1.096 1.67195 1.31044L0.0304242 10.1029C-0.0397722 10.455 0.0123337 10.8206 0.178123 11.139C0.343913 11.4575 0.613453 11.7099 0.942158 11.8544C1.15267 11.9509 1.38137 12.0014 1.61296 12.0023C1.89015 12.0022 2.16222 11.9276 2.40073 11.7864V16.0012C2.40073 17.0617 2.82204 18.0788 3.57196 18.8288C4.32189 19.5787 5.33901 20 6.39957 20H15.9968C17.0573 20 18.0744 19.5787 18.8244 18.8288C19.5743 18.0788 19.9956 17.0617 19.9956 16.0012V11.7874C20.2339 11.9284 20.5055 12.0029 20.7824 12.0033C21.0142 12.0027 21.2432 11.9526 21.4542 11.8564C21.7833 11.7118 22.0531 11.4591 22.2189 11.1402C22.3847 10.8213 22.4366 10.4553 22.3659 10.1029ZM15.9968 18.4005H11.9979V17.1318L13.3635 15.7672C13.5136 15.6172 13.5979 15.4136 13.5979 15.2014C13.5979 14.9892 13.5136 14.7856 13.3635 14.6356C13.2135 14.4855 13.0099 14.4012 12.7977 14.4012C12.5855 14.4012 12.3819 14.4855 12.2319 14.6356L11.1982 15.6703L10.1645 14.6356C10.0144 14.4855 9.81087 14.4012 9.59864 14.4012C9.38641 14.4012 9.18287 14.4855 9.0328 14.6356C8.88273 14.7856 8.79842 14.9892 8.79842 15.2014C8.79842 15.4136 8.88273 15.6172 9.0328 15.7672L10.3984 17.1318V18.4005H6.39957C5.76323 18.4005 5.15296 18.1477 4.70301 17.6977C4.25305 17.2478 4.00027 16.6375 4.00027 16.0012V9.91394L9.19175 3.20489H13.2046L18.3961 9.91394V16.0012C18.3961 16.6375 18.1433 17.2478 17.6933 17.6977C17.2434 18.1477 16.6331 18.4005 15.9968 18.4005ZM8.79887 11.6024C8.79887 11.8397 8.72851 12.0717 8.59669 12.2689C8.46487 12.4662 8.27751 12.62 8.0583 12.7108C7.8391 12.8016 7.59789 12.8253 7.36518 12.779C7.13247 12.7328 6.91871 12.6185 6.75094 12.4507C6.58316 12.283 6.46891 12.0692 6.42262 11.8365C6.37633 11.6038 6.40009 11.3626 6.49089 11.1434C6.58168 10.9242 6.73545 10.7368 6.93273 10.605C7.13001 10.4732 7.36195 10.4028 7.59922 10.4028C7.91739 10.4028 8.22252 10.5292 8.4475 10.7542C8.67248 10.9791 8.79887 11.2843 8.79887 11.6024ZM15.9968 11.6024C15.9968 11.8397 15.9264 12.0717 15.7946 12.2689C15.6628 12.4662 15.4754 12.62 15.2562 12.7108C15.037 12.8016 14.7958 12.8253 14.5631 12.779C14.3304 12.7328 14.1166 12.6185 13.9488 12.4507C13.7811 12.283 13.6668 12.0692 13.6205 11.8365C13.5742 11.6038 13.598 11.3626 13.6888 11.1434C13.7796 10.9242 13.9333 10.7368 14.1306 10.605C14.3279 10.4732 14.5599 10.4028 14.7971 10.4028C15.1153 10.4028 15.4204 10.5292 15.6454 10.7542C15.8704 10.9791 15.9968 11.2843 15.9968 11.6024Z" fill="#444444"/>
</svg>