<svg xmlns="http://www.w3.org/2000/svg" width="23" height="20" viewBox="0 0 23 20" fill="none">
  <path d="M20 2.6087H16.987L15.5054 0.386957C15.4261 0.267991 15.3186 0.170438 15.1925 0.102941C15.0664 0.0354437 14.9256 8.58749e-05 14.7826 0H7.82609C7.68307 8.58749e-05 7.54229 0.0354437 7.41621 0.102941C7.29012 0.170438 7.18263 0.267991 7.10326 0.386957L5.62065 2.6087H2.6087C1.91683 2.6087 1.25329 2.88354 0.764069 3.37276C0.274844 3.86199 0 4.52552 0 5.21739V17.3913C0 18.0832 0.274844 18.7467 0.764069 19.2359C1.25329 19.7252 1.91683 20 2.6087 20H20C20.6919 20 21.3554 19.7252 21.8446 19.2359C22.3339 18.7467 22.6087 18.0832 22.6087 17.3913V5.21739C22.6087 4.52552 22.3339 3.86199 21.8446 3.37276C21.3554 2.88354 20.6919 2.6087 20 2.6087ZM15.2174 10.8696C15.2174 11.6435 14.9879 12.4 14.5579 13.0435C14.128 13.687 13.5168 14.1886 12.8018 14.4847C12.0868 14.7809 11.3 14.8584 10.541 14.7074C9.78189 14.5564 9.08466 14.1838 8.53741 13.6365C7.99016 13.0893 7.61748 12.392 7.46649 11.633C7.31551 10.8739 7.393 10.0871 7.68917 9.37211C7.98534 8.65709 8.48688 8.04596 9.13038 7.61599C9.77387 7.18602 10.5304 6.95652 11.3043 6.95652C12.3422 6.95652 13.3375 7.36879 14.0713 8.10263C14.8051 8.83646 15.2174 9.83176 15.2174 10.8696Z" fill="#222222"/>
</svg>